G04 #@! TF.GenerationSoftware,KiCad,Pcbnew,5.1.4+dfsg1-1*
G04 #@! TF.CreationDate,2020-04-01T11:30:31+02:00*
G04 #@! TF.ProjectId,nrfmicro,6e72666d-6963-4726-9f2e-6b696361645f,rev?*
G04 #@! TF.SameCoordinates,Original*
G04 #@! TF.FileFunction,Copper,L1,Top*
G04 #@! TF.FilePolarity,Positive*
%FSLAX46Y46*%
G04 Gerber Fmt 4.6, Leading zero omitted, Abs format (unit mm)*
G04 Created by KiCad (PCBNEW 5.1.4+dfsg1-1) date 2020-04-01 11:30:31*
%MOMM*%
%LPD*%
G04 APERTURE LIST*
%ADD10C,0.100000*%
%ADD11C,1.500000*%
%ADD12R,0.450000X1.200000*%
%ADD13C,0.800000*%
%ADD14C,1.270000*%
%ADD15R,1.250000X1.250000*%
%ADD16C,0.875000*%
%ADD17R,1.000000X0.650000*%
%ADD18R,0.650000X1.000000*%
%ADD19R,0.800000X0.900000*%
%ADD20R,1.100000X1.100000*%
%ADD21R,0.650000X1.060000*%
%ADD22C,0.600000*%
%ADD23C,0.200000*%
G04 APERTURE END LIST*
D10*
G36*
X104213289Y-130654581D02*
G01*
X104249692Y-130659981D01*
X104285390Y-130668922D01*
X104320039Y-130681320D01*
X104353307Y-130697055D01*
X104384872Y-130715974D01*
X104414430Y-130737896D01*
X104441698Y-130762610D01*
X104466412Y-130789878D01*
X104488334Y-130819436D01*
X104507253Y-130851001D01*
X104522988Y-130884269D01*
X104535386Y-130918918D01*
X104544327Y-130954616D01*
X104549727Y-130991019D01*
X104551533Y-131027775D01*
X104551533Y-131777775D01*
X104549727Y-131814531D01*
X104544327Y-131850934D01*
X104535386Y-131886632D01*
X104522988Y-131921281D01*
X104507253Y-131954549D01*
X104488334Y-131986114D01*
X104466412Y-132015672D01*
X104441698Y-132042940D01*
X104414430Y-132067654D01*
X104384872Y-132089576D01*
X104353307Y-132108495D01*
X104320039Y-132124230D01*
X104285390Y-132136628D01*
X104249692Y-132145569D01*
X104213289Y-132150969D01*
X104176533Y-132152775D01*
X103426533Y-132152775D01*
X103389777Y-132150969D01*
X103353374Y-132145569D01*
X103317676Y-132136628D01*
X103283027Y-132124230D01*
X103249759Y-132108495D01*
X103218194Y-132089576D01*
X103188636Y-132067654D01*
X103161368Y-132042940D01*
X103136654Y-132015672D01*
X103114732Y-131986114D01*
X103095813Y-131954549D01*
X103080078Y-131921281D01*
X103067680Y-131886632D01*
X103058739Y-131850934D01*
X103053339Y-131814531D01*
X103051533Y-131777775D01*
X103051533Y-131027775D01*
X103053339Y-130991019D01*
X103058739Y-130954616D01*
X103067680Y-130918918D01*
X103080078Y-130884269D01*
X103095813Y-130851001D01*
X103114732Y-130819436D01*
X103136654Y-130789878D01*
X103161368Y-130762610D01*
X103188636Y-130737896D01*
X103218194Y-130715974D01*
X103249759Y-130697055D01*
X103283027Y-130681320D01*
X103317676Y-130668922D01*
X103353374Y-130659981D01*
X103389777Y-130654581D01*
X103426533Y-130652775D01*
X104176533Y-130652775D01*
X104213289Y-130654581D01*
X104213289Y-130654581D01*
G37*
D11*
X103801533Y-131402775D03*
D10*
G36*
X104213289Y-128114581D02*
G01*
X104249692Y-128119981D01*
X104285390Y-128128922D01*
X104320039Y-128141320D01*
X104353307Y-128157055D01*
X104384872Y-128175974D01*
X104414430Y-128197896D01*
X104441698Y-128222610D01*
X104466412Y-128249878D01*
X104488334Y-128279436D01*
X104507253Y-128311001D01*
X104522988Y-128344269D01*
X104535386Y-128378918D01*
X104544327Y-128414616D01*
X104549727Y-128451019D01*
X104551533Y-128487775D01*
X104551533Y-129237775D01*
X104549727Y-129274531D01*
X104544327Y-129310934D01*
X104535386Y-129346632D01*
X104522988Y-129381281D01*
X104507253Y-129414549D01*
X104488334Y-129446114D01*
X104466412Y-129475672D01*
X104441698Y-129502940D01*
X104414430Y-129527654D01*
X104384872Y-129549576D01*
X104353307Y-129568495D01*
X104320039Y-129584230D01*
X104285390Y-129596628D01*
X104249692Y-129605569D01*
X104213289Y-129610969D01*
X104176533Y-129612775D01*
X103426533Y-129612775D01*
X103389777Y-129610969D01*
X103353374Y-129605569D01*
X103317676Y-129596628D01*
X103283027Y-129584230D01*
X103249759Y-129568495D01*
X103218194Y-129549576D01*
X103188636Y-129527654D01*
X103161368Y-129502940D01*
X103136654Y-129475672D01*
X103114732Y-129446114D01*
X103095813Y-129414549D01*
X103080078Y-129381281D01*
X103067680Y-129346632D01*
X103058739Y-129310934D01*
X103053339Y-129274531D01*
X103051533Y-129237775D01*
X103051533Y-128487775D01*
X103053339Y-128451019D01*
X103058739Y-128414616D01*
X103067680Y-128378918D01*
X103080078Y-128344269D01*
X103095813Y-128311001D01*
X103114732Y-128279436D01*
X103136654Y-128249878D01*
X103161368Y-128222610D01*
X103188636Y-128197896D01*
X103218194Y-128175974D01*
X103249759Y-128157055D01*
X103283027Y-128141320D01*
X103317676Y-128128922D01*
X103353374Y-128119981D01*
X103389777Y-128114581D01*
X103426533Y-128112775D01*
X104176533Y-128112775D01*
X104213289Y-128114581D01*
X104213289Y-128114581D01*
G37*
D11*
X103801533Y-128862775D03*
D12*
X103152000Y-113699000D03*
X103802000Y-113699000D03*
X104452000Y-113699000D03*
X105102000Y-113699000D03*
X102502000Y-113699000D03*
D13*
X107665000Y-110203000D03*
X107665000Y-110467000D03*
X107677000Y-109949000D03*
X99918000Y-110467000D03*
X99927000Y-110203000D03*
X99918000Y-109959000D03*
X107538000Y-113896000D03*
X107538000Y-114150000D03*
X107538000Y-113642000D03*
X100045000Y-114150000D03*
X100045000Y-113642000D03*
X100045000Y-113896000D03*
D10*
G36*
X104213289Y-135734581D02*
G01*
X104249692Y-135739981D01*
X104285390Y-135748922D01*
X104320039Y-135761320D01*
X104353307Y-135777055D01*
X104384872Y-135795974D01*
X104414430Y-135817896D01*
X104441698Y-135842610D01*
X104466412Y-135869878D01*
X104488334Y-135899436D01*
X104507253Y-135931001D01*
X104522988Y-135964269D01*
X104535386Y-135998918D01*
X104544327Y-136034616D01*
X104549727Y-136071019D01*
X104551533Y-136107775D01*
X104551533Y-136857775D01*
X104549727Y-136894531D01*
X104544327Y-136930934D01*
X104535386Y-136966632D01*
X104522988Y-137001281D01*
X104507253Y-137034549D01*
X104488334Y-137066114D01*
X104466412Y-137095672D01*
X104441698Y-137122940D01*
X104414430Y-137147654D01*
X104384872Y-137169576D01*
X104353307Y-137188495D01*
X104320039Y-137204230D01*
X104285390Y-137216628D01*
X104249692Y-137225569D01*
X104213289Y-137230969D01*
X104176533Y-137232775D01*
X103426533Y-137232775D01*
X103389777Y-137230969D01*
X103353374Y-137225569D01*
X103317676Y-137216628D01*
X103283027Y-137204230D01*
X103249759Y-137188495D01*
X103218194Y-137169576D01*
X103188636Y-137147654D01*
X103161368Y-137122940D01*
X103136654Y-137095672D01*
X103114732Y-137066114D01*
X103095813Y-137034549D01*
X103080078Y-137001281D01*
X103067680Y-136966632D01*
X103058739Y-136930934D01*
X103053339Y-136894531D01*
X103051533Y-136857775D01*
X103051533Y-136107775D01*
X103053339Y-136071019D01*
X103058739Y-136034616D01*
X103067680Y-135998918D01*
X103080078Y-135964269D01*
X103095813Y-135931001D01*
X103114732Y-135899436D01*
X103136654Y-135869878D01*
X103161368Y-135842610D01*
X103188636Y-135817896D01*
X103218194Y-135795974D01*
X103249759Y-135777055D01*
X103283027Y-135761320D01*
X103317676Y-135748922D01*
X103353374Y-135739981D01*
X103389777Y-135734581D01*
X103426533Y-135732775D01*
X104176533Y-135732775D01*
X104213289Y-135734581D01*
X104213289Y-135734581D01*
G37*
D11*
X103801533Y-136482775D03*
D10*
G36*
X104213289Y-133194581D02*
G01*
X104249692Y-133199981D01*
X104285390Y-133208922D01*
X104320039Y-133221320D01*
X104353307Y-133237055D01*
X104384872Y-133255974D01*
X104414430Y-133277896D01*
X104441698Y-133302610D01*
X104466412Y-133329878D01*
X104488334Y-133359436D01*
X104507253Y-133391001D01*
X104522988Y-133424269D01*
X104535386Y-133458918D01*
X104544327Y-133494616D01*
X104549727Y-133531019D01*
X104551533Y-133567775D01*
X104551533Y-134317775D01*
X104549727Y-134354531D01*
X104544327Y-134390934D01*
X104535386Y-134426632D01*
X104522988Y-134461281D01*
X104507253Y-134494549D01*
X104488334Y-134526114D01*
X104466412Y-134555672D01*
X104441698Y-134582940D01*
X104414430Y-134607654D01*
X104384872Y-134629576D01*
X104353307Y-134648495D01*
X104320039Y-134664230D01*
X104285390Y-134676628D01*
X104249692Y-134685569D01*
X104213289Y-134690969D01*
X104176533Y-134692775D01*
X103426533Y-134692775D01*
X103389777Y-134690969D01*
X103353374Y-134685569D01*
X103317676Y-134676628D01*
X103283027Y-134664230D01*
X103249759Y-134648495D01*
X103218194Y-134629576D01*
X103188636Y-134607654D01*
X103161368Y-134582940D01*
X103136654Y-134555672D01*
X103114732Y-134526114D01*
X103095813Y-134494549D01*
X103080078Y-134461281D01*
X103067680Y-134426632D01*
X103058739Y-134390934D01*
X103053339Y-134354531D01*
X103051533Y-134317775D01*
X103051533Y-133567775D01*
X103053339Y-133531019D01*
X103058739Y-133494616D01*
X103067680Y-133458918D01*
X103080078Y-133424269D01*
X103095813Y-133391001D01*
X103114732Y-133359436D01*
X103136654Y-133329878D01*
X103161368Y-133302610D01*
X103188636Y-133277896D01*
X103218194Y-133255974D01*
X103249759Y-133237055D01*
X103283027Y-133221320D01*
X103317676Y-133208922D01*
X103353374Y-133199981D01*
X103389777Y-133194581D01*
X103426533Y-133192775D01*
X104176533Y-133192775D01*
X104213289Y-133194581D01*
X104213289Y-133194581D01*
G37*
D11*
X103801533Y-133942775D03*
D14*
X111422000Y-109813000D03*
X96182000Y-109813000D03*
D15*
X111422000Y-112353000D03*
D14*
X111422000Y-114893000D03*
X111422000Y-117433000D03*
X111422000Y-119973000D03*
X111422000Y-122513000D03*
X111422000Y-125053000D03*
X111422000Y-127593000D03*
X111422000Y-130133000D03*
X111422000Y-132673000D03*
X111422000Y-135213000D03*
X111422000Y-137753000D03*
X111422000Y-140293000D03*
X96182000Y-140293000D03*
X96182000Y-137753000D03*
X96182000Y-135213000D03*
X96182000Y-132673000D03*
X96182000Y-130133000D03*
X96182000Y-127593000D03*
X96182000Y-125053000D03*
X96182000Y-122513000D03*
X96182000Y-119973000D03*
X96182000Y-117433000D03*
X96182000Y-114893000D03*
X96182000Y-112353000D03*
D10*
G36*
X102047691Y-115701053D02*
G01*
X102068926Y-115704203D01*
X102089750Y-115709419D01*
X102109962Y-115716651D01*
X102129368Y-115725830D01*
X102147781Y-115736866D01*
X102165024Y-115749654D01*
X102180930Y-115764070D01*
X102195346Y-115779976D01*
X102208134Y-115797219D01*
X102219170Y-115815632D01*
X102228349Y-115835038D01*
X102235581Y-115855250D01*
X102240797Y-115876074D01*
X102243947Y-115897309D01*
X102245000Y-115918750D01*
X102245000Y-116356250D01*
X102243947Y-116377691D01*
X102240797Y-116398926D01*
X102235581Y-116419750D01*
X102228349Y-116439962D01*
X102219170Y-116459368D01*
X102208134Y-116477781D01*
X102195346Y-116495024D01*
X102180930Y-116510930D01*
X102165024Y-116525346D01*
X102147781Y-116538134D01*
X102129368Y-116549170D01*
X102109962Y-116558349D01*
X102089750Y-116565581D01*
X102068926Y-116570797D01*
X102047691Y-116573947D01*
X102026250Y-116575000D01*
X101513750Y-116575000D01*
X101492309Y-116573947D01*
X101471074Y-116570797D01*
X101450250Y-116565581D01*
X101430038Y-116558349D01*
X101410632Y-116549170D01*
X101392219Y-116538134D01*
X101374976Y-116525346D01*
X101359070Y-116510930D01*
X101344654Y-116495024D01*
X101331866Y-116477781D01*
X101320830Y-116459368D01*
X101311651Y-116439962D01*
X101304419Y-116419750D01*
X101299203Y-116398926D01*
X101296053Y-116377691D01*
X101295000Y-116356250D01*
X101295000Y-115918750D01*
X101296053Y-115897309D01*
X101299203Y-115876074D01*
X101304419Y-115855250D01*
X101311651Y-115835038D01*
X101320830Y-115815632D01*
X101331866Y-115797219D01*
X101344654Y-115779976D01*
X101359070Y-115764070D01*
X101374976Y-115749654D01*
X101392219Y-115736866D01*
X101410632Y-115725830D01*
X101430038Y-115716651D01*
X101450250Y-115709419D01*
X101471074Y-115704203D01*
X101492309Y-115701053D01*
X101513750Y-115700000D01*
X102026250Y-115700000D01*
X102047691Y-115701053D01*
X102047691Y-115701053D01*
G37*
D16*
X101770000Y-116137500D03*
D10*
G36*
X102047691Y-117276053D02*
G01*
X102068926Y-117279203D01*
X102089750Y-117284419D01*
X102109962Y-117291651D01*
X102129368Y-117300830D01*
X102147781Y-117311866D01*
X102165024Y-117324654D01*
X102180930Y-117339070D01*
X102195346Y-117354976D01*
X102208134Y-117372219D01*
X102219170Y-117390632D01*
X102228349Y-117410038D01*
X102235581Y-117430250D01*
X102240797Y-117451074D01*
X102243947Y-117472309D01*
X102245000Y-117493750D01*
X102245000Y-117931250D01*
X102243947Y-117952691D01*
X102240797Y-117973926D01*
X102235581Y-117994750D01*
X102228349Y-118014962D01*
X102219170Y-118034368D01*
X102208134Y-118052781D01*
X102195346Y-118070024D01*
X102180930Y-118085930D01*
X102165024Y-118100346D01*
X102147781Y-118113134D01*
X102129368Y-118124170D01*
X102109962Y-118133349D01*
X102089750Y-118140581D01*
X102068926Y-118145797D01*
X102047691Y-118148947D01*
X102026250Y-118150000D01*
X101513750Y-118150000D01*
X101492309Y-118148947D01*
X101471074Y-118145797D01*
X101450250Y-118140581D01*
X101430038Y-118133349D01*
X101410632Y-118124170D01*
X101392219Y-118113134D01*
X101374976Y-118100346D01*
X101359070Y-118085930D01*
X101344654Y-118070024D01*
X101331866Y-118052781D01*
X101320830Y-118034368D01*
X101311651Y-118014962D01*
X101304419Y-117994750D01*
X101299203Y-117973926D01*
X101296053Y-117952691D01*
X101295000Y-117931250D01*
X101295000Y-117493750D01*
X101296053Y-117472309D01*
X101299203Y-117451074D01*
X101304419Y-117430250D01*
X101311651Y-117410038D01*
X101320830Y-117390632D01*
X101331866Y-117372219D01*
X101344654Y-117354976D01*
X101359070Y-117339070D01*
X101374976Y-117324654D01*
X101392219Y-117311866D01*
X101410632Y-117300830D01*
X101430038Y-117291651D01*
X101450250Y-117284419D01*
X101471074Y-117279203D01*
X101492309Y-117276053D01*
X101513750Y-117275000D01*
X102026250Y-117275000D01*
X102047691Y-117276053D01*
X102047691Y-117276053D01*
G37*
D16*
X101770000Y-117712500D03*
D10*
G36*
X100523691Y-115701053D02*
G01*
X100544926Y-115704203D01*
X100565750Y-115709419D01*
X100585962Y-115716651D01*
X100605368Y-115725830D01*
X100623781Y-115736866D01*
X100641024Y-115749654D01*
X100656930Y-115764070D01*
X100671346Y-115779976D01*
X100684134Y-115797219D01*
X100695170Y-115815632D01*
X100704349Y-115835038D01*
X100711581Y-115855250D01*
X100716797Y-115876074D01*
X100719947Y-115897309D01*
X100721000Y-115918750D01*
X100721000Y-116356250D01*
X100719947Y-116377691D01*
X100716797Y-116398926D01*
X100711581Y-116419750D01*
X100704349Y-116439962D01*
X100695170Y-116459368D01*
X100684134Y-116477781D01*
X100671346Y-116495024D01*
X100656930Y-116510930D01*
X100641024Y-116525346D01*
X100623781Y-116538134D01*
X100605368Y-116549170D01*
X100585962Y-116558349D01*
X100565750Y-116565581D01*
X100544926Y-116570797D01*
X100523691Y-116573947D01*
X100502250Y-116575000D01*
X99989750Y-116575000D01*
X99968309Y-116573947D01*
X99947074Y-116570797D01*
X99926250Y-116565581D01*
X99906038Y-116558349D01*
X99886632Y-116549170D01*
X99868219Y-116538134D01*
X99850976Y-116525346D01*
X99835070Y-116510930D01*
X99820654Y-116495024D01*
X99807866Y-116477781D01*
X99796830Y-116459368D01*
X99787651Y-116439962D01*
X99780419Y-116419750D01*
X99775203Y-116398926D01*
X99772053Y-116377691D01*
X99771000Y-116356250D01*
X99771000Y-115918750D01*
X99772053Y-115897309D01*
X99775203Y-115876074D01*
X99780419Y-115855250D01*
X99787651Y-115835038D01*
X99796830Y-115815632D01*
X99807866Y-115797219D01*
X99820654Y-115779976D01*
X99835070Y-115764070D01*
X99850976Y-115749654D01*
X99868219Y-115736866D01*
X99886632Y-115725830D01*
X99906038Y-115716651D01*
X99926250Y-115709419D01*
X99947074Y-115704203D01*
X99968309Y-115701053D01*
X99989750Y-115700000D01*
X100502250Y-115700000D01*
X100523691Y-115701053D01*
X100523691Y-115701053D01*
G37*
D16*
X100246000Y-116137500D03*
D10*
G36*
X100523691Y-117276053D02*
G01*
X100544926Y-117279203D01*
X100565750Y-117284419D01*
X100585962Y-117291651D01*
X100605368Y-117300830D01*
X100623781Y-117311866D01*
X100641024Y-117324654D01*
X100656930Y-117339070D01*
X100671346Y-117354976D01*
X100684134Y-117372219D01*
X100695170Y-117390632D01*
X100704349Y-117410038D01*
X100711581Y-117430250D01*
X100716797Y-117451074D01*
X100719947Y-117472309D01*
X100721000Y-117493750D01*
X100721000Y-117931250D01*
X100719947Y-117952691D01*
X100716797Y-117973926D01*
X100711581Y-117994750D01*
X100704349Y-118014962D01*
X100695170Y-118034368D01*
X100684134Y-118052781D01*
X100671346Y-118070024D01*
X100656930Y-118085930D01*
X100641024Y-118100346D01*
X100623781Y-118113134D01*
X100605368Y-118124170D01*
X100585962Y-118133349D01*
X100565750Y-118140581D01*
X100544926Y-118145797D01*
X100523691Y-118148947D01*
X100502250Y-118150000D01*
X99989750Y-118150000D01*
X99968309Y-118148947D01*
X99947074Y-118145797D01*
X99926250Y-118140581D01*
X99906038Y-118133349D01*
X99886632Y-118124170D01*
X99868219Y-118113134D01*
X99850976Y-118100346D01*
X99835070Y-118085930D01*
X99820654Y-118070024D01*
X99807866Y-118052781D01*
X99796830Y-118034368D01*
X99787651Y-118014962D01*
X99780419Y-117994750D01*
X99775203Y-117973926D01*
X99772053Y-117952691D01*
X99771000Y-117931250D01*
X99771000Y-117493750D01*
X99772053Y-117472309D01*
X99775203Y-117451074D01*
X99780419Y-117430250D01*
X99787651Y-117410038D01*
X99796830Y-117390632D01*
X99807866Y-117372219D01*
X99820654Y-117354976D01*
X99835070Y-117339070D01*
X99850976Y-117324654D01*
X99868219Y-117311866D01*
X99886632Y-117300830D01*
X99906038Y-117291651D01*
X99926250Y-117284419D01*
X99947074Y-117279203D01*
X99968309Y-117276053D01*
X99989750Y-117275000D01*
X100502250Y-117275000D01*
X100523691Y-117276053D01*
X100523691Y-117276053D01*
G37*
D16*
X100246000Y-117712500D03*
D10*
G36*
X98999191Y-117276053D02*
G01*
X99020426Y-117279203D01*
X99041250Y-117284419D01*
X99061462Y-117291651D01*
X99080868Y-117300830D01*
X99099281Y-117311866D01*
X99116524Y-117324654D01*
X99132430Y-117339070D01*
X99146846Y-117354976D01*
X99159634Y-117372219D01*
X99170670Y-117390632D01*
X99179849Y-117410038D01*
X99187081Y-117430250D01*
X99192297Y-117451074D01*
X99195447Y-117472309D01*
X99196500Y-117493750D01*
X99196500Y-117931250D01*
X99195447Y-117952691D01*
X99192297Y-117973926D01*
X99187081Y-117994750D01*
X99179849Y-118014962D01*
X99170670Y-118034368D01*
X99159634Y-118052781D01*
X99146846Y-118070024D01*
X99132430Y-118085930D01*
X99116524Y-118100346D01*
X99099281Y-118113134D01*
X99080868Y-118124170D01*
X99061462Y-118133349D01*
X99041250Y-118140581D01*
X99020426Y-118145797D01*
X98999191Y-118148947D01*
X98977750Y-118150000D01*
X98465250Y-118150000D01*
X98443809Y-118148947D01*
X98422574Y-118145797D01*
X98401750Y-118140581D01*
X98381538Y-118133349D01*
X98362132Y-118124170D01*
X98343719Y-118113134D01*
X98326476Y-118100346D01*
X98310570Y-118085930D01*
X98296154Y-118070024D01*
X98283366Y-118052781D01*
X98272330Y-118034368D01*
X98263151Y-118014962D01*
X98255919Y-117994750D01*
X98250703Y-117973926D01*
X98247553Y-117952691D01*
X98246500Y-117931250D01*
X98246500Y-117493750D01*
X98247553Y-117472309D01*
X98250703Y-117451074D01*
X98255919Y-117430250D01*
X98263151Y-117410038D01*
X98272330Y-117390632D01*
X98283366Y-117372219D01*
X98296154Y-117354976D01*
X98310570Y-117339070D01*
X98326476Y-117324654D01*
X98343719Y-117311866D01*
X98362132Y-117300830D01*
X98381538Y-117291651D01*
X98401750Y-117284419D01*
X98422574Y-117279203D01*
X98443809Y-117276053D01*
X98465250Y-117275000D01*
X98977750Y-117275000D01*
X98999191Y-117276053D01*
X98999191Y-117276053D01*
G37*
D16*
X98721500Y-117712500D03*
D10*
G36*
X98999191Y-115701053D02*
G01*
X99020426Y-115704203D01*
X99041250Y-115709419D01*
X99061462Y-115716651D01*
X99080868Y-115725830D01*
X99099281Y-115736866D01*
X99116524Y-115749654D01*
X99132430Y-115764070D01*
X99146846Y-115779976D01*
X99159634Y-115797219D01*
X99170670Y-115815632D01*
X99179849Y-115835038D01*
X99187081Y-115855250D01*
X99192297Y-115876074D01*
X99195447Y-115897309D01*
X99196500Y-115918750D01*
X99196500Y-116356250D01*
X99195447Y-116377691D01*
X99192297Y-116398926D01*
X99187081Y-116419750D01*
X99179849Y-116439962D01*
X99170670Y-116459368D01*
X99159634Y-116477781D01*
X99146846Y-116495024D01*
X99132430Y-116510930D01*
X99116524Y-116525346D01*
X99099281Y-116538134D01*
X99080868Y-116549170D01*
X99061462Y-116558349D01*
X99041250Y-116565581D01*
X99020426Y-116570797D01*
X98999191Y-116573947D01*
X98977750Y-116575000D01*
X98465250Y-116575000D01*
X98443809Y-116573947D01*
X98422574Y-116570797D01*
X98401750Y-116565581D01*
X98381538Y-116558349D01*
X98362132Y-116549170D01*
X98343719Y-116538134D01*
X98326476Y-116525346D01*
X98310570Y-116510930D01*
X98296154Y-116495024D01*
X98283366Y-116477781D01*
X98272330Y-116459368D01*
X98263151Y-116439962D01*
X98255919Y-116419750D01*
X98250703Y-116398926D01*
X98247553Y-116377691D01*
X98246500Y-116356250D01*
X98246500Y-115918750D01*
X98247553Y-115897309D01*
X98250703Y-115876074D01*
X98255919Y-115855250D01*
X98263151Y-115835038D01*
X98272330Y-115815632D01*
X98283366Y-115797219D01*
X98296154Y-115779976D01*
X98310570Y-115764070D01*
X98326476Y-115749654D01*
X98343719Y-115736866D01*
X98362132Y-115725830D01*
X98381538Y-115716651D01*
X98401750Y-115709419D01*
X98422574Y-115704203D01*
X98443809Y-115701053D01*
X98465250Y-115700000D01*
X98977750Y-115700000D01*
X98999191Y-115701053D01*
X98999191Y-115701053D01*
G37*
D16*
X98721500Y-116137500D03*
D17*
X99761000Y-128415000D03*
X109921000Y-126383000D03*
X109921000Y-127653000D03*
X109921000Y-128923000D03*
X109921000Y-130193000D03*
X109921000Y-131463000D03*
X109921000Y-132733000D03*
X109921000Y-134003000D03*
X109921000Y-135273000D03*
X109921000Y-136543000D03*
X109921000Y-137813000D03*
X97683000Y-130193000D03*
X97683000Y-137813000D03*
X97683000Y-131463000D03*
X97683000Y-136543000D03*
X97683000Y-135273000D03*
X97683000Y-134003000D03*
X97683000Y-128923000D03*
X97683000Y-132733000D03*
X97683000Y-127653000D03*
X97683000Y-126383000D03*
D18*
X100652000Y-124164000D03*
X108272000Y-124164000D03*
X101922000Y-124164000D03*
X107002000Y-124164000D03*
X105732000Y-124164000D03*
X104462000Y-124164000D03*
X99382000Y-124164000D03*
X103192000Y-124164000D03*
D17*
X99761000Y-129685000D03*
X99761000Y-130955000D03*
X99761000Y-132225000D03*
X99761000Y-133495000D03*
X99761000Y-134765000D03*
X99761000Y-136035000D03*
X99761000Y-137305000D03*
D18*
X106365000Y-125875000D03*
X107635000Y-125875000D03*
X102555000Y-125875000D03*
X105095000Y-125875000D03*
X101285000Y-125875000D03*
X100015000Y-125875000D03*
X103825000Y-125875000D03*
D10*
G36*
X106111691Y-115701053D02*
G01*
X106132926Y-115704203D01*
X106153750Y-115709419D01*
X106173962Y-115716651D01*
X106193368Y-115725830D01*
X106211781Y-115736866D01*
X106229024Y-115749654D01*
X106244930Y-115764070D01*
X106259346Y-115779976D01*
X106272134Y-115797219D01*
X106283170Y-115815632D01*
X106292349Y-115835038D01*
X106299581Y-115855250D01*
X106304797Y-115876074D01*
X106307947Y-115897309D01*
X106309000Y-115918750D01*
X106309000Y-116356250D01*
X106307947Y-116377691D01*
X106304797Y-116398926D01*
X106299581Y-116419750D01*
X106292349Y-116439962D01*
X106283170Y-116459368D01*
X106272134Y-116477781D01*
X106259346Y-116495024D01*
X106244930Y-116510930D01*
X106229024Y-116525346D01*
X106211781Y-116538134D01*
X106193368Y-116549170D01*
X106173962Y-116558349D01*
X106153750Y-116565581D01*
X106132926Y-116570797D01*
X106111691Y-116573947D01*
X106090250Y-116575000D01*
X105577750Y-116575000D01*
X105556309Y-116573947D01*
X105535074Y-116570797D01*
X105514250Y-116565581D01*
X105494038Y-116558349D01*
X105474632Y-116549170D01*
X105456219Y-116538134D01*
X105438976Y-116525346D01*
X105423070Y-116510930D01*
X105408654Y-116495024D01*
X105395866Y-116477781D01*
X105384830Y-116459368D01*
X105375651Y-116439962D01*
X105368419Y-116419750D01*
X105363203Y-116398926D01*
X105360053Y-116377691D01*
X105359000Y-116356250D01*
X105359000Y-115918750D01*
X105360053Y-115897309D01*
X105363203Y-115876074D01*
X105368419Y-115855250D01*
X105375651Y-115835038D01*
X105384830Y-115815632D01*
X105395866Y-115797219D01*
X105408654Y-115779976D01*
X105423070Y-115764070D01*
X105438976Y-115749654D01*
X105456219Y-115736866D01*
X105474632Y-115725830D01*
X105494038Y-115716651D01*
X105514250Y-115709419D01*
X105535074Y-115704203D01*
X105556309Y-115701053D01*
X105577750Y-115700000D01*
X106090250Y-115700000D01*
X106111691Y-115701053D01*
X106111691Y-115701053D01*
G37*
D16*
X105834000Y-116137500D03*
D10*
G36*
X106111691Y-117276053D02*
G01*
X106132926Y-117279203D01*
X106153750Y-117284419D01*
X106173962Y-117291651D01*
X106193368Y-117300830D01*
X106211781Y-117311866D01*
X106229024Y-117324654D01*
X106244930Y-117339070D01*
X106259346Y-117354976D01*
X106272134Y-117372219D01*
X106283170Y-117390632D01*
X106292349Y-117410038D01*
X106299581Y-117430250D01*
X106304797Y-117451074D01*
X106307947Y-117472309D01*
X106309000Y-117493750D01*
X106309000Y-117931250D01*
X106307947Y-117952691D01*
X106304797Y-117973926D01*
X106299581Y-117994750D01*
X106292349Y-118014962D01*
X106283170Y-118034368D01*
X106272134Y-118052781D01*
X106259346Y-118070024D01*
X106244930Y-118085930D01*
X106229024Y-118100346D01*
X106211781Y-118113134D01*
X106193368Y-118124170D01*
X106173962Y-118133349D01*
X106153750Y-118140581D01*
X106132926Y-118145797D01*
X106111691Y-118148947D01*
X106090250Y-118150000D01*
X105577750Y-118150000D01*
X105556309Y-118148947D01*
X105535074Y-118145797D01*
X105514250Y-118140581D01*
X105494038Y-118133349D01*
X105474632Y-118124170D01*
X105456219Y-118113134D01*
X105438976Y-118100346D01*
X105423070Y-118085930D01*
X105408654Y-118070024D01*
X105395866Y-118052781D01*
X105384830Y-118034368D01*
X105375651Y-118014962D01*
X105368419Y-117994750D01*
X105363203Y-117973926D01*
X105360053Y-117952691D01*
X105359000Y-117931250D01*
X105359000Y-117493750D01*
X105360053Y-117472309D01*
X105363203Y-117451074D01*
X105368419Y-117430250D01*
X105375651Y-117410038D01*
X105384830Y-117390632D01*
X105395866Y-117372219D01*
X105408654Y-117354976D01*
X105423070Y-117339070D01*
X105438976Y-117324654D01*
X105456219Y-117311866D01*
X105474632Y-117300830D01*
X105494038Y-117291651D01*
X105514250Y-117284419D01*
X105535074Y-117279203D01*
X105556309Y-117276053D01*
X105577750Y-117275000D01*
X106090250Y-117275000D01*
X106111691Y-117276053D01*
X106111691Y-117276053D01*
G37*
D16*
X105834000Y-117712500D03*
D10*
G36*
X109159691Y-117276053D02*
G01*
X109180926Y-117279203D01*
X109201750Y-117284419D01*
X109221962Y-117291651D01*
X109241368Y-117300830D01*
X109259781Y-117311866D01*
X109277024Y-117324654D01*
X109292930Y-117339070D01*
X109307346Y-117354976D01*
X109320134Y-117372219D01*
X109331170Y-117390632D01*
X109340349Y-117410038D01*
X109347581Y-117430250D01*
X109352797Y-117451074D01*
X109355947Y-117472309D01*
X109357000Y-117493750D01*
X109357000Y-117931250D01*
X109355947Y-117952691D01*
X109352797Y-117973926D01*
X109347581Y-117994750D01*
X109340349Y-118014962D01*
X109331170Y-118034368D01*
X109320134Y-118052781D01*
X109307346Y-118070024D01*
X109292930Y-118085930D01*
X109277024Y-118100346D01*
X109259781Y-118113134D01*
X109241368Y-118124170D01*
X109221962Y-118133349D01*
X109201750Y-118140581D01*
X109180926Y-118145797D01*
X109159691Y-118148947D01*
X109138250Y-118150000D01*
X108625750Y-118150000D01*
X108604309Y-118148947D01*
X108583074Y-118145797D01*
X108562250Y-118140581D01*
X108542038Y-118133349D01*
X108522632Y-118124170D01*
X108504219Y-118113134D01*
X108486976Y-118100346D01*
X108471070Y-118085930D01*
X108456654Y-118070024D01*
X108443866Y-118052781D01*
X108432830Y-118034368D01*
X108423651Y-118014962D01*
X108416419Y-117994750D01*
X108411203Y-117973926D01*
X108408053Y-117952691D01*
X108407000Y-117931250D01*
X108407000Y-117493750D01*
X108408053Y-117472309D01*
X108411203Y-117451074D01*
X108416419Y-117430250D01*
X108423651Y-117410038D01*
X108432830Y-117390632D01*
X108443866Y-117372219D01*
X108456654Y-117354976D01*
X108471070Y-117339070D01*
X108486976Y-117324654D01*
X108504219Y-117311866D01*
X108522632Y-117300830D01*
X108542038Y-117291651D01*
X108562250Y-117284419D01*
X108583074Y-117279203D01*
X108604309Y-117276053D01*
X108625750Y-117275000D01*
X109138250Y-117275000D01*
X109159691Y-117276053D01*
X109159691Y-117276053D01*
G37*
D16*
X108882000Y-117712500D03*
D10*
G36*
X109159691Y-115701053D02*
G01*
X109180926Y-115704203D01*
X109201750Y-115709419D01*
X109221962Y-115716651D01*
X109241368Y-115725830D01*
X109259781Y-115736866D01*
X109277024Y-115749654D01*
X109292930Y-115764070D01*
X109307346Y-115779976D01*
X109320134Y-115797219D01*
X109331170Y-115815632D01*
X109340349Y-115835038D01*
X109347581Y-115855250D01*
X109352797Y-115876074D01*
X109355947Y-115897309D01*
X109357000Y-115918750D01*
X109357000Y-116356250D01*
X109355947Y-116377691D01*
X109352797Y-116398926D01*
X109347581Y-116419750D01*
X109340349Y-116439962D01*
X109331170Y-116459368D01*
X109320134Y-116477781D01*
X109307346Y-116495024D01*
X109292930Y-116510930D01*
X109277024Y-116525346D01*
X109259781Y-116538134D01*
X109241368Y-116549170D01*
X109221962Y-116558349D01*
X109201750Y-116565581D01*
X109180926Y-116570797D01*
X109159691Y-116573947D01*
X109138250Y-116575000D01*
X108625750Y-116575000D01*
X108604309Y-116573947D01*
X108583074Y-116570797D01*
X108562250Y-116565581D01*
X108542038Y-116558349D01*
X108522632Y-116549170D01*
X108504219Y-116538134D01*
X108486976Y-116525346D01*
X108471070Y-116510930D01*
X108456654Y-116495024D01*
X108443866Y-116477781D01*
X108432830Y-116459368D01*
X108423651Y-116439962D01*
X108416419Y-116419750D01*
X108411203Y-116398926D01*
X108408053Y-116377691D01*
X108407000Y-116356250D01*
X108407000Y-115918750D01*
X108408053Y-115897309D01*
X108411203Y-115876074D01*
X108416419Y-115855250D01*
X108423651Y-115835038D01*
X108432830Y-115815632D01*
X108443866Y-115797219D01*
X108456654Y-115779976D01*
X108471070Y-115764070D01*
X108486976Y-115749654D01*
X108504219Y-115736866D01*
X108522632Y-115725830D01*
X108542038Y-115716651D01*
X108562250Y-115709419D01*
X108583074Y-115704203D01*
X108604309Y-115701053D01*
X108625750Y-115700000D01*
X109138250Y-115700000D01*
X109159691Y-115701053D01*
X109159691Y-115701053D01*
G37*
D16*
X108882000Y-116137500D03*
D10*
G36*
X107635691Y-115701053D02*
G01*
X107656926Y-115704203D01*
X107677750Y-115709419D01*
X107697962Y-115716651D01*
X107717368Y-115725830D01*
X107735781Y-115736866D01*
X107753024Y-115749654D01*
X107768930Y-115764070D01*
X107783346Y-115779976D01*
X107796134Y-115797219D01*
X107807170Y-115815632D01*
X107816349Y-115835038D01*
X107823581Y-115855250D01*
X107828797Y-115876074D01*
X107831947Y-115897309D01*
X107833000Y-115918750D01*
X107833000Y-116356250D01*
X107831947Y-116377691D01*
X107828797Y-116398926D01*
X107823581Y-116419750D01*
X107816349Y-116439962D01*
X107807170Y-116459368D01*
X107796134Y-116477781D01*
X107783346Y-116495024D01*
X107768930Y-116510930D01*
X107753024Y-116525346D01*
X107735781Y-116538134D01*
X107717368Y-116549170D01*
X107697962Y-116558349D01*
X107677750Y-116565581D01*
X107656926Y-116570797D01*
X107635691Y-116573947D01*
X107614250Y-116575000D01*
X107101750Y-116575000D01*
X107080309Y-116573947D01*
X107059074Y-116570797D01*
X107038250Y-116565581D01*
X107018038Y-116558349D01*
X106998632Y-116549170D01*
X106980219Y-116538134D01*
X106962976Y-116525346D01*
X106947070Y-116510930D01*
X106932654Y-116495024D01*
X106919866Y-116477781D01*
X106908830Y-116459368D01*
X106899651Y-116439962D01*
X106892419Y-116419750D01*
X106887203Y-116398926D01*
X106884053Y-116377691D01*
X106883000Y-116356250D01*
X106883000Y-115918750D01*
X106884053Y-115897309D01*
X106887203Y-115876074D01*
X106892419Y-115855250D01*
X106899651Y-115835038D01*
X106908830Y-115815632D01*
X106919866Y-115797219D01*
X106932654Y-115779976D01*
X106947070Y-115764070D01*
X106962976Y-115749654D01*
X106980219Y-115736866D01*
X106998632Y-115725830D01*
X107018038Y-115716651D01*
X107038250Y-115709419D01*
X107059074Y-115704203D01*
X107080309Y-115701053D01*
X107101750Y-115700000D01*
X107614250Y-115700000D01*
X107635691Y-115701053D01*
X107635691Y-115701053D01*
G37*
D16*
X107358000Y-116137500D03*
D10*
G36*
X107635691Y-117276053D02*
G01*
X107656926Y-117279203D01*
X107677750Y-117284419D01*
X107697962Y-117291651D01*
X107717368Y-117300830D01*
X107735781Y-117311866D01*
X107753024Y-117324654D01*
X107768930Y-117339070D01*
X107783346Y-117354976D01*
X107796134Y-117372219D01*
X107807170Y-117390632D01*
X107816349Y-117410038D01*
X107823581Y-117430250D01*
X107828797Y-117451074D01*
X107831947Y-117472309D01*
X107833000Y-117493750D01*
X107833000Y-117931250D01*
X107831947Y-117952691D01*
X107828797Y-117973926D01*
X107823581Y-117994750D01*
X107816349Y-118014962D01*
X107807170Y-118034368D01*
X107796134Y-118052781D01*
X107783346Y-118070024D01*
X107768930Y-118085930D01*
X107753024Y-118100346D01*
X107735781Y-118113134D01*
X107717368Y-118124170D01*
X107697962Y-118133349D01*
X107677750Y-118140581D01*
X107656926Y-118145797D01*
X107635691Y-118148947D01*
X107614250Y-118150000D01*
X107101750Y-118150000D01*
X107080309Y-118148947D01*
X107059074Y-118145797D01*
X107038250Y-118140581D01*
X107018038Y-118133349D01*
X106998632Y-118124170D01*
X106980219Y-118113134D01*
X106962976Y-118100346D01*
X106947070Y-118085930D01*
X106932654Y-118070024D01*
X106919866Y-118052781D01*
X106908830Y-118034368D01*
X106899651Y-118014962D01*
X106892419Y-117994750D01*
X106887203Y-117973926D01*
X106884053Y-117952691D01*
X106883000Y-117931250D01*
X106883000Y-117493750D01*
X106884053Y-117472309D01*
X106887203Y-117451074D01*
X106892419Y-117430250D01*
X106899651Y-117410038D01*
X106908830Y-117390632D01*
X106919866Y-117372219D01*
X106932654Y-117354976D01*
X106947070Y-117339070D01*
X106962976Y-117324654D01*
X106980219Y-117311866D01*
X106998632Y-117300830D01*
X107018038Y-117291651D01*
X107038250Y-117284419D01*
X107059074Y-117279203D01*
X107080309Y-117276053D01*
X107101750Y-117275000D01*
X107614250Y-117275000D01*
X107635691Y-117276053D01*
X107635691Y-117276053D01*
G37*
D16*
X107358000Y-117712500D03*
D19*
X104752000Y-120243000D03*
X102852000Y-120243000D03*
X103802000Y-122243000D03*
D20*
X103802000Y-118455000D03*
X103802000Y-115655000D03*
D21*
X108816000Y-122343000D03*
X106916000Y-122343000D03*
X106916000Y-120143000D03*
X107866000Y-120143000D03*
X108816000Y-120143000D03*
X100687500Y-120143000D03*
X99737500Y-120143000D03*
X98787500Y-120143000D03*
X98787500Y-122343000D03*
X100687500Y-122343000D03*
D22*
X106598000Y-118449200D03*
X101005300Y-118446500D03*
X98783900Y-126371500D03*
X104766100Y-121655000D03*
X105102800Y-123083500D03*
X103802000Y-119522300D03*
X109666200Y-118428300D03*
X98689600Y-134753800D03*
X100708400Y-134120400D03*
X102771900Y-121668900D03*
D23*
X106285300Y-118449200D02*
X106285300Y-118163800D01*
X106285300Y-118163800D02*
X105834000Y-117712500D01*
X107866000Y-120973300D02*
X106458300Y-120973300D01*
X106458300Y-120973300D02*
X106285300Y-120800300D01*
X106285300Y-120800300D02*
X106285300Y-118449200D01*
X106285300Y-118449200D02*
X106598000Y-118449200D01*
X109921000Y-132733000D02*
X109120700Y-132733000D01*
X97182300Y-120973300D02*
X96182000Y-119973000D01*
X99737500Y-120973300D02*
X97182300Y-120973300D01*
X109120700Y-132733000D02*
X109003300Y-132850400D01*
X109003300Y-132850400D02*
X98960600Y-132850400D01*
X98960600Y-132850400D02*
X98452600Y-133358400D01*
X98452600Y-133358400D02*
X96882600Y-133358400D01*
X96882600Y-133358400D02*
X96590300Y-133650700D01*
X96590300Y-133650700D02*
X95742700Y-133650700D01*
X95742700Y-133650700D02*
X95237800Y-133145800D01*
X95237800Y-133145800D02*
X95237800Y-127152100D01*
X95237800Y-127152100D02*
X95732300Y-126657600D01*
X95732300Y-126657600D02*
X95935300Y-126657600D01*
X95935300Y-126657600D02*
X97182300Y-125410600D01*
X97182300Y-125410600D02*
X97182300Y-120973300D01*
X100015000Y-125074700D02*
X100015000Y-121250800D01*
X100015000Y-121250800D02*
X99737500Y-120973300D01*
X111422000Y-114893000D02*
X108527100Y-111998100D01*
X108527100Y-111998100D02*
X103302600Y-111998100D01*
X103302600Y-111998100D02*
X102502000Y-112798700D01*
X101922000Y-124964300D02*
X101811600Y-125074700D01*
X101811600Y-125074700D02*
X100015000Y-125074700D01*
X99737500Y-120143000D02*
X99737500Y-120973300D01*
X98879100Y-117712500D02*
X99737500Y-118570900D01*
X99737500Y-118570900D02*
X99737500Y-120143000D01*
X102502000Y-113699000D02*
X102502000Y-114599300D01*
X101770000Y-116137500D02*
X101770000Y-115331300D01*
X101770000Y-115331300D02*
X102502000Y-114599300D01*
X100246000Y-116137500D02*
X101770000Y-116137500D01*
X96182000Y-117433000D02*
X95230800Y-116481800D01*
X95230800Y-116481800D02*
X95230800Y-110764200D01*
X95230800Y-110764200D02*
X96182000Y-109813000D01*
X96182000Y-119973000D02*
X96182000Y-117433000D01*
X101922000Y-124164000D02*
X101922000Y-124964300D01*
X100015000Y-125875000D02*
X100015000Y-125074700D01*
X107866000Y-120143000D02*
X107866000Y-120973300D01*
X102502000Y-113699000D02*
X102502000Y-112798700D01*
X107358000Y-117712500D02*
X105834000Y-117712500D01*
X98879100Y-117712500D02*
X98879100Y-117504400D01*
X98879100Y-117504400D02*
X100246000Y-116137500D01*
X98879100Y-117712500D02*
X98721500Y-117712500D01*
X101770000Y-118446500D02*
X101770000Y-117712500D01*
X103192000Y-123363700D02*
X101770000Y-121941700D01*
X101770000Y-121941700D02*
X101770000Y-118446500D01*
X101770000Y-118446500D02*
X101005300Y-118446500D01*
X103192000Y-124164000D02*
X103192000Y-123363700D01*
X108816000Y-122343000D02*
X109052000Y-122343000D01*
X109052000Y-122343000D02*
X111422000Y-119973000D01*
X98483300Y-126383000D02*
X98772400Y-126383000D01*
X98772400Y-126383000D02*
X98783900Y-126371500D01*
X97683000Y-126383000D02*
X98483300Y-126383000D01*
X109921000Y-130193000D02*
X111362000Y-130193000D01*
X111362000Y-130193000D02*
X111422000Y-130133000D01*
X109921000Y-128923000D02*
X110721300Y-128923000D01*
X110721300Y-128923000D02*
X110721300Y-128293700D01*
X110721300Y-128293700D02*
X111422000Y-127593000D01*
X109921000Y-126383000D02*
X109921000Y-124014000D01*
X109921000Y-124014000D02*
X111422000Y-122513000D01*
X107538000Y-113896000D02*
X107538000Y-114150000D01*
X107538000Y-113642000D02*
X107538000Y-113896000D01*
X109921000Y-127653000D02*
X111422000Y-126152000D01*
X111422000Y-126152000D02*
X111422000Y-125053000D01*
X97683000Y-137813000D02*
X96242000Y-137813000D01*
X96242000Y-137813000D02*
X96182000Y-137753000D01*
X97683000Y-136543000D02*
X96882700Y-136543000D01*
X96882700Y-136543000D02*
X96882700Y-135913700D01*
X96882700Y-135913700D02*
X96182000Y-135213000D01*
X99384200Y-126722000D02*
X104239800Y-126722000D01*
X104239800Y-126722000D02*
X104450400Y-126511400D01*
X104450400Y-126511400D02*
X104450400Y-125237800D01*
X104450400Y-125237800D02*
X104723900Y-124964300D01*
X104723900Y-124964300D02*
X104911400Y-124964300D01*
X104911400Y-124964300D02*
X105102800Y-124772900D01*
X105102800Y-124772900D02*
X105102800Y-123083500D01*
X98483300Y-127653000D02*
X99384200Y-126752100D01*
X99384200Y-126752100D02*
X99384200Y-126722000D01*
X99384200Y-126722000D02*
X99384200Y-125486300D01*
X99384200Y-125486300D02*
X98746200Y-124848300D01*
X98746200Y-124848300D02*
X98746200Y-123214600D01*
X98746200Y-123214600D02*
X98787500Y-123173300D01*
X104652300Y-115655000D02*
X105102000Y-115205300D01*
X105102000Y-115205300D02*
X105102000Y-114599300D01*
X104752000Y-119492700D02*
X104652300Y-119393000D01*
X104652300Y-119393000D02*
X104652300Y-115655000D01*
X104752000Y-120243000D02*
X104752000Y-120993300D01*
X104766100Y-121655000D02*
X104766100Y-121007400D01*
X104766100Y-121007400D02*
X104752000Y-120993300D01*
X104752000Y-120243000D02*
X104752000Y-119492700D01*
X98787500Y-122343000D02*
X98787500Y-123173300D01*
X107358000Y-116137500D02*
X105819800Y-114599300D01*
X105819800Y-114599300D02*
X105102000Y-114599300D01*
X105102000Y-113699000D02*
X105102000Y-114599300D01*
X97683000Y-127653000D02*
X98483300Y-127653000D01*
X103802000Y-115655000D02*
X104652300Y-115655000D01*
X109702300Y-111558600D02*
X101122800Y-111558600D01*
X101122800Y-111558600D02*
X98721500Y-113959900D01*
X98721500Y-113959900D02*
X98721500Y-116137500D01*
X110496700Y-112353000D02*
X109702300Y-111558600D01*
X109702300Y-111558600D02*
X111422000Y-109838900D01*
X111422000Y-109838900D02*
X111422000Y-109813000D01*
X111422000Y-112353000D02*
X110496700Y-112353000D01*
X98787500Y-119312700D02*
X97938100Y-118463300D01*
X97938100Y-118463300D02*
X97938100Y-116920900D01*
X97938100Y-116920900D02*
X98721500Y-116137500D01*
X98787500Y-120143000D02*
X98787500Y-119312700D01*
X98483300Y-130193000D02*
X98600700Y-130310400D01*
X97683000Y-130193000D02*
X98483300Y-130193000D01*
X103802000Y-112798700D02*
X103802000Y-113699000D01*
X107290500Y-112398400D02*
X104202300Y-112398400D01*
X110486600Y-115594500D02*
X107290500Y-112398400D01*
X111317100Y-121243000D02*
X111577300Y-121243000D01*
X110486600Y-117822600D02*
X110486600Y-115594500D01*
X109441400Y-123118700D02*
X111317100Y-121243000D01*
X112362200Y-120458100D02*
X112362200Y-119494900D01*
X109441400Y-125433602D02*
X109441400Y-123118700D01*
X104202300Y-112398400D02*
X103802000Y-112798700D01*
X111367000Y-118703000D02*
X110486600Y-117822600D01*
X111577300Y-121243000D02*
X112362200Y-120458100D01*
X112362200Y-119494900D02*
X111570300Y-118703000D01*
X111570300Y-118703000D02*
X111367000Y-118703000D01*
X103801533Y-130488025D02*
X103801533Y-131402775D01*
X103979158Y-130310400D02*
X103801533Y-130488025D01*
X103979158Y-130310400D02*
X104490800Y-130310400D01*
X98600700Y-130310400D02*
X103979158Y-130310400D01*
X109367598Y-125433602D02*
X104490800Y-130310400D01*
X109441400Y-125433602D02*
X109367598Y-125433602D01*
X98483300Y-128923000D02*
X98600600Y-129040300D01*
X105720400Y-126505700D02*
X105720400Y-125265600D01*
X105720400Y-125265600D02*
X105911400Y-125074600D01*
X105911400Y-125074600D02*
X106134500Y-125074600D01*
X106134500Y-125074600D02*
X106357400Y-124851700D01*
X106357400Y-124851700D02*
X106357400Y-123486500D01*
X106357400Y-123486500D02*
X106480300Y-123363600D01*
X106480300Y-123363600D02*
X107176700Y-123363600D01*
X107176700Y-123363600D02*
X108187900Y-122352400D01*
X108187900Y-122352400D02*
X108187900Y-121689500D01*
X108187900Y-121689500D02*
X108634400Y-121243000D01*
X108634400Y-121243000D02*
X109093300Y-121243000D01*
X109093300Y-121243000D02*
X110288500Y-120047800D01*
X110288500Y-120047800D02*
X110288500Y-118190600D01*
X110288500Y-118190600D02*
X110086200Y-117988300D01*
X110086200Y-117988300D02*
X110086200Y-116086800D01*
X110086200Y-116086800D02*
X109265600Y-115266200D01*
X109265600Y-115266200D02*
X107624700Y-115266200D01*
X107624700Y-115266200D02*
X105992300Y-113633800D01*
X105992300Y-113633800D02*
X105992300Y-113310000D01*
X105992300Y-113310000D02*
X105481000Y-112798700D01*
X105481000Y-112798700D02*
X104452000Y-112798700D01*
X104452000Y-113699000D02*
X104452000Y-112798700D01*
X97683000Y-128923000D02*
X98483300Y-128923000D01*
X105104090Y-127122010D02*
X105720400Y-126505700D01*
X102888496Y-127122010D02*
X105104090Y-127122010D01*
X98600600Y-129040300D02*
X101084008Y-129040300D01*
X101084008Y-128926498D02*
X101084008Y-129040300D01*
X101839632Y-128170874D02*
X102531533Y-128862775D01*
X101839632Y-128170874D02*
X102888496Y-127122010D01*
X101084008Y-128926498D02*
X101839632Y-128170874D01*
X102531533Y-128862775D02*
X103801533Y-128862775D01*
X109921000Y-131463000D02*
X110721300Y-131463000D01*
X110721300Y-131463000D02*
X110721300Y-131972300D01*
X110721300Y-131972300D02*
X111422000Y-132673000D01*
X109921000Y-137813000D02*
X109921000Y-138792000D01*
X109921000Y-138792000D02*
X111422000Y-140293000D01*
X97683000Y-131463000D02*
X96882700Y-131463000D01*
X96882700Y-131463000D02*
X96882700Y-130833700D01*
X96882700Y-130833700D02*
X96182000Y-130133000D01*
X97683000Y-132733000D02*
X96882700Y-132733000D01*
X96882700Y-132733000D02*
X96822700Y-132673000D01*
X96822700Y-132673000D02*
X96182000Y-132673000D01*
X109921000Y-135273000D02*
X111362000Y-135273000D01*
X111362000Y-135273000D02*
X111422000Y-135213000D01*
X109921000Y-134003000D02*
X111576600Y-134003000D01*
X111576600Y-134003000D02*
X112392100Y-134818500D01*
X112392100Y-134818500D02*
X112392100Y-136782900D01*
X112392100Y-136782900D02*
X111422000Y-137753000D01*
X105834000Y-116137500D02*
X105055300Y-116916200D01*
X105055300Y-116916200D02*
X105055300Y-119226000D01*
X105055300Y-119226000D02*
X105452400Y-119623100D01*
X105452400Y-119623100D02*
X105452400Y-121884900D01*
X105452400Y-121884900D02*
X103817400Y-123519900D01*
X103817400Y-123519900D02*
X103817400Y-124822400D01*
X103817400Y-124822400D02*
X103675400Y-124964400D01*
X103675400Y-124964400D02*
X102681100Y-124964400D01*
X102681100Y-124964400D02*
X102547400Y-124830700D01*
X102547400Y-124830700D02*
X102547400Y-123509600D01*
X102547400Y-123509600D02*
X102211100Y-123173300D01*
X102211100Y-123173300D02*
X100687500Y-123173300D01*
X100687500Y-122343000D02*
X100687500Y-123173300D01*
X108882000Y-117712500D02*
X107281800Y-119312700D01*
X107281800Y-119312700D02*
X106916000Y-119312700D01*
X106916000Y-120143000D02*
X106916000Y-119312700D01*
X109666200Y-118428300D02*
X109666200Y-118877600D01*
X109666200Y-118877600D02*
X108816000Y-119727800D01*
X108882000Y-116137500D02*
X109666200Y-116921700D01*
X109666200Y-116921700D02*
X109666200Y-118428300D01*
X103802000Y-119522300D02*
X103802000Y-119305300D01*
X108816000Y-120143000D02*
X108816000Y-119727800D01*
X103802000Y-118455000D02*
X103802000Y-119305300D01*
X103117500Y-118455000D02*
X103117500Y-117812200D01*
X103117500Y-117812200D02*
X102277500Y-116972200D01*
X102277500Y-116972200D02*
X100986300Y-116972200D01*
X100986300Y-116972200D02*
X100246000Y-117712500D01*
X103802000Y-118455000D02*
X103117500Y-118455000D01*
X102852000Y-119492700D02*
X103039400Y-119305300D01*
X103039400Y-119305300D02*
X103802000Y-119305300D01*
X102852000Y-120243000D02*
X102852000Y-119492700D01*
X98483300Y-135273000D02*
X98483300Y-134960100D01*
X98483300Y-134960100D02*
X98689600Y-134753800D01*
X97683000Y-135273000D02*
X98483300Y-135273000D01*
X98483300Y-134003000D02*
X98600700Y-134120400D01*
X98600700Y-134120400D02*
X100708400Y-134120400D01*
X97683000Y-134003000D02*
X98483300Y-134003000D01*
X103802000Y-121492700D02*
X102948100Y-121492700D01*
X102948100Y-121492700D02*
X102771900Y-121668900D01*
X103802000Y-122243000D02*
X103802000Y-121492700D01*
M02*
