G04 #@! TF.GenerationSoftware,KiCad,Pcbnew,5.1.4+dfsg1-1*
G04 #@! TF.CreationDate,2020-04-01T11:30:31+02:00*
G04 #@! TF.ProjectId,nrfmicro,6e72666d-6963-4726-9f2e-6b696361645f,rev?*
G04 #@! TF.SameCoordinates,Original*
G04 #@! TF.FileFunction,Paste,Top*
G04 #@! TF.FilePolarity,Positive*
%FSLAX46Y46*%
G04 Gerber Fmt 4.6, Leading zero omitted, Abs format (unit mm)*
G04 Created by KiCad (PCBNEW 5.1.4+dfsg1-1) date 2020-04-01 11:30:31*
%MOMM*%
%LPD*%
G04 APERTURE LIST*
%ADD10R,0.450000X1.200000*%
%ADD11C,0.100000*%
%ADD12C,0.875000*%
%ADD13R,1.000000X0.650000*%
%ADD14R,0.650000X1.000000*%
%ADD15R,0.800000X0.900000*%
%ADD16R,1.100000X1.100000*%
%ADD17R,0.650000X1.060000*%
G04 APERTURE END LIST*
D10*
X103152000Y-113699000D03*
X103802000Y-113699000D03*
X104452000Y-113699000D03*
X105102000Y-113699000D03*
X102502000Y-113699000D03*
D11*
G36*
X102047691Y-115701053D02*
G01*
X102068926Y-115704203D01*
X102089750Y-115709419D01*
X102109962Y-115716651D01*
X102129368Y-115725830D01*
X102147781Y-115736866D01*
X102165024Y-115749654D01*
X102180930Y-115764070D01*
X102195346Y-115779976D01*
X102208134Y-115797219D01*
X102219170Y-115815632D01*
X102228349Y-115835038D01*
X102235581Y-115855250D01*
X102240797Y-115876074D01*
X102243947Y-115897309D01*
X102245000Y-115918750D01*
X102245000Y-116356250D01*
X102243947Y-116377691D01*
X102240797Y-116398926D01*
X102235581Y-116419750D01*
X102228349Y-116439962D01*
X102219170Y-116459368D01*
X102208134Y-116477781D01*
X102195346Y-116495024D01*
X102180930Y-116510930D01*
X102165024Y-116525346D01*
X102147781Y-116538134D01*
X102129368Y-116549170D01*
X102109962Y-116558349D01*
X102089750Y-116565581D01*
X102068926Y-116570797D01*
X102047691Y-116573947D01*
X102026250Y-116575000D01*
X101513750Y-116575000D01*
X101492309Y-116573947D01*
X101471074Y-116570797D01*
X101450250Y-116565581D01*
X101430038Y-116558349D01*
X101410632Y-116549170D01*
X101392219Y-116538134D01*
X101374976Y-116525346D01*
X101359070Y-116510930D01*
X101344654Y-116495024D01*
X101331866Y-116477781D01*
X101320830Y-116459368D01*
X101311651Y-116439962D01*
X101304419Y-116419750D01*
X101299203Y-116398926D01*
X101296053Y-116377691D01*
X101295000Y-116356250D01*
X101295000Y-115918750D01*
X101296053Y-115897309D01*
X101299203Y-115876074D01*
X101304419Y-115855250D01*
X101311651Y-115835038D01*
X101320830Y-115815632D01*
X101331866Y-115797219D01*
X101344654Y-115779976D01*
X101359070Y-115764070D01*
X101374976Y-115749654D01*
X101392219Y-115736866D01*
X101410632Y-115725830D01*
X101430038Y-115716651D01*
X101450250Y-115709419D01*
X101471074Y-115704203D01*
X101492309Y-115701053D01*
X101513750Y-115700000D01*
X102026250Y-115700000D01*
X102047691Y-115701053D01*
X102047691Y-115701053D01*
G37*
D12*
X101770000Y-116137500D03*
D11*
G36*
X102047691Y-117276053D02*
G01*
X102068926Y-117279203D01*
X102089750Y-117284419D01*
X102109962Y-117291651D01*
X102129368Y-117300830D01*
X102147781Y-117311866D01*
X102165024Y-117324654D01*
X102180930Y-117339070D01*
X102195346Y-117354976D01*
X102208134Y-117372219D01*
X102219170Y-117390632D01*
X102228349Y-117410038D01*
X102235581Y-117430250D01*
X102240797Y-117451074D01*
X102243947Y-117472309D01*
X102245000Y-117493750D01*
X102245000Y-117931250D01*
X102243947Y-117952691D01*
X102240797Y-117973926D01*
X102235581Y-117994750D01*
X102228349Y-118014962D01*
X102219170Y-118034368D01*
X102208134Y-118052781D01*
X102195346Y-118070024D01*
X102180930Y-118085930D01*
X102165024Y-118100346D01*
X102147781Y-118113134D01*
X102129368Y-118124170D01*
X102109962Y-118133349D01*
X102089750Y-118140581D01*
X102068926Y-118145797D01*
X102047691Y-118148947D01*
X102026250Y-118150000D01*
X101513750Y-118150000D01*
X101492309Y-118148947D01*
X101471074Y-118145797D01*
X101450250Y-118140581D01*
X101430038Y-118133349D01*
X101410632Y-118124170D01*
X101392219Y-118113134D01*
X101374976Y-118100346D01*
X101359070Y-118085930D01*
X101344654Y-118070024D01*
X101331866Y-118052781D01*
X101320830Y-118034368D01*
X101311651Y-118014962D01*
X101304419Y-117994750D01*
X101299203Y-117973926D01*
X101296053Y-117952691D01*
X101295000Y-117931250D01*
X101295000Y-117493750D01*
X101296053Y-117472309D01*
X101299203Y-117451074D01*
X101304419Y-117430250D01*
X101311651Y-117410038D01*
X101320830Y-117390632D01*
X101331866Y-117372219D01*
X101344654Y-117354976D01*
X101359070Y-117339070D01*
X101374976Y-117324654D01*
X101392219Y-117311866D01*
X101410632Y-117300830D01*
X101430038Y-117291651D01*
X101450250Y-117284419D01*
X101471074Y-117279203D01*
X101492309Y-117276053D01*
X101513750Y-117275000D01*
X102026250Y-117275000D01*
X102047691Y-117276053D01*
X102047691Y-117276053D01*
G37*
D12*
X101770000Y-117712500D03*
D11*
G36*
X100523691Y-115701053D02*
G01*
X100544926Y-115704203D01*
X100565750Y-115709419D01*
X100585962Y-115716651D01*
X100605368Y-115725830D01*
X100623781Y-115736866D01*
X100641024Y-115749654D01*
X100656930Y-115764070D01*
X100671346Y-115779976D01*
X100684134Y-115797219D01*
X100695170Y-115815632D01*
X100704349Y-115835038D01*
X100711581Y-115855250D01*
X100716797Y-115876074D01*
X100719947Y-115897309D01*
X100721000Y-115918750D01*
X100721000Y-116356250D01*
X100719947Y-116377691D01*
X100716797Y-116398926D01*
X100711581Y-116419750D01*
X100704349Y-116439962D01*
X100695170Y-116459368D01*
X100684134Y-116477781D01*
X100671346Y-116495024D01*
X100656930Y-116510930D01*
X100641024Y-116525346D01*
X100623781Y-116538134D01*
X100605368Y-116549170D01*
X100585962Y-116558349D01*
X100565750Y-116565581D01*
X100544926Y-116570797D01*
X100523691Y-116573947D01*
X100502250Y-116575000D01*
X99989750Y-116575000D01*
X99968309Y-116573947D01*
X99947074Y-116570797D01*
X99926250Y-116565581D01*
X99906038Y-116558349D01*
X99886632Y-116549170D01*
X99868219Y-116538134D01*
X99850976Y-116525346D01*
X99835070Y-116510930D01*
X99820654Y-116495024D01*
X99807866Y-116477781D01*
X99796830Y-116459368D01*
X99787651Y-116439962D01*
X99780419Y-116419750D01*
X99775203Y-116398926D01*
X99772053Y-116377691D01*
X99771000Y-116356250D01*
X99771000Y-115918750D01*
X99772053Y-115897309D01*
X99775203Y-115876074D01*
X99780419Y-115855250D01*
X99787651Y-115835038D01*
X99796830Y-115815632D01*
X99807866Y-115797219D01*
X99820654Y-115779976D01*
X99835070Y-115764070D01*
X99850976Y-115749654D01*
X99868219Y-115736866D01*
X99886632Y-115725830D01*
X99906038Y-115716651D01*
X99926250Y-115709419D01*
X99947074Y-115704203D01*
X99968309Y-115701053D01*
X99989750Y-115700000D01*
X100502250Y-115700000D01*
X100523691Y-115701053D01*
X100523691Y-115701053D01*
G37*
D12*
X100246000Y-116137500D03*
D11*
G36*
X100523691Y-117276053D02*
G01*
X100544926Y-117279203D01*
X100565750Y-117284419D01*
X100585962Y-117291651D01*
X100605368Y-117300830D01*
X100623781Y-117311866D01*
X100641024Y-117324654D01*
X100656930Y-117339070D01*
X100671346Y-117354976D01*
X100684134Y-117372219D01*
X100695170Y-117390632D01*
X100704349Y-117410038D01*
X100711581Y-117430250D01*
X100716797Y-117451074D01*
X100719947Y-117472309D01*
X100721000Y-117493750D01*
X100721000Y-117931250D01*
X100719947Y-117952691D01*
X100716797Y-117973926D01*
X100711581Y-117994750D01*
X100704349Y-118014962D01*
X100695170Y-118034368D01*
X100684134Y-118052781D01*
X100671346Y-118070024D01*
X100656930Y-118085930D01*
X100641024Y-118100346D01*
X100623781Y-118113134D01*
X100605368Y-118124170D01*
X100585962Y-118133349D01*
X100565750Y-118140581D01*
X100544926Y-118145797D01*
X100523691Y-118148947D01*
X100502250Y-118150000D01*
X99989750Y-118150000D01*
X99968309Y-118148947D01*
X99947074Y-118145797D01*
X99926250Y-118140581D01*
X99906038Y-118133349D01*
X99886632Y-118124170D01*
X99868219Y-118113134D01*
X99850976Y-118100346D01*
X99835070Y-118085930D01*
X99820654Y-118070024D01*
X99807866Y-118052781D01*
X99796830Y-118034368D01*
X99787651Y-118014962D01*
X99780419Y-117994750D01*
X99775203Y-117973926D01*
X99772053Y-117952691D01*
X99771000Y-117931250D01*
X99771000Y-117493750D01*
X99772053Y-117472309D01*
X99775203Y-117451074D01*
X99780419Y-117430250D01*
X99787651Y-117410038D01*
X99796830Y-117390632D01*
X99807866Y-117372219D01*
X99820654Y-117354976D01*
X99835070Y-117339070D01*
X99850976Y-117324654D01*
X99868219Y-117311866D01*
X99886632Y-117300830D01*
X99906038Y-117291651D01*
X99926250Y-117284419D01*
X99947074Y-117279203D01*
X99968309Y-117276053D01*
X99989750Y-117275000D01*
X100502250Y-117275000D01*
X100523691Y-117276053D01*
X100523691Y-117276053D01*
G37*
D12*
X100246000Y-117712500D03*
D11*
G36*
X98999191Y-117276053D02*
G01*
X99020426Y-117279203D01*
X99041250Y-117284419D01*
X99061462Y-117291651D01*
X99080868Y-117300830D01*
X99099281Y-117311866D01*
X99116524Y-117324654D01*
X99132430Y-117339070D01*
X99146846Y-117354976D01*
X99159634Y-117372219D01*
X99170670Y-117390632D01*
X99179849Y-117410038D01*
X99187081Y-117430250D01*
X99192297Y-117451074D01*
X99195447Y-117472309D01*
X99196500Y-117493750D01*
X99196500Y-117931250D01*
X99195447Y-117952691D01*
X99192297Y-117973926D01*
X99187081Y-117994750D01*
X99179849Y-118014962D01*
X99170670Y-118034368D01*
X99159634Y-118052781D01*
X99146846Y-118070024D01*
X99132430Y-118085930D01*
X99116524Y-118100346D01*
X99099281Y-118113134D01*
X99080868Y-118124170D01*
X99061462Y-118133349D01*
X99041250Y-118140581D01*
X99020426Y-118145797D01*
X98999191Y-118148947D01*
X98977750Y-118150000D01*
X98465250Y-118150000D01*
X98443809Y-118148947D01*
X98422574Y-118145797D01*
X98401750Y-118140581D01*
X98381538Y-118133349D01*
X98362132Y-118124170D01*
X98343719Y-118113134D01*
X98326476Y-118100346D01*
X98310570Y-118085930D01*
X98296154Y-118070024D01*
X98283366Y-118052781D01*
X98272330Y-118034368D01*
X98263151Y-118014962D01*
X98255919Y-117994750D01*
X98250703Y-117973926D01*
X98247553Y-117952691D01*
X98246500Y-117931250D01*
X98246500Y-117493750D01*
X98247553Y-117472309D01*
X98250703Y-117451074D01*
X98255919Y-117430250D01*
X98263151Y-117410038D01*
X98272330Y-117390632D01*
X98283366Y-117372219D01*
X98296154Y-117354976D01*
X98310570Y-117339070D01*
X98326476Y-117324654D01*
X98343719Y-117311866D01*
X98362132Y-117300830D01*
X98381538Y-117291651D01*
X98401750Y-117284419D01*
X98422574Y-117279203D01*
X98443809Y-117276053D01*
X98465250Y-117275000D01*
X98977750Y-117275000D01*
X98999191Y-117276053D01*
X98999191Y-117276053D01*
G37*
D12*
X98721500Y-117712500D03*
D11*
G36*
X98999191Y-115701053D02*
G01*
X99020426Y-115704203D01*
X99041250Y-115709419D01*
X99061462Y-115716651D01*
X99080868Y-115725830D01*
X99099281Y-115736866D01*
X99116524Y-115749654D01*
X99132430Y-115764070D01*
X99146846Y-115779976D01*
X99159634Y-115797219D01*
X99170670Y-115815632D01*
X99179849Y-115835038D01*
X99187081Y-115855250D01*
X99192297Y-115876074D01*
X99195447Y-115897309D01*
X99196500Y-115918750D01*
X99196500Y-116356250D01*
X99195447Y-116377691D01*
X99192297Y-116398926D01*
X99187081Y-116419750D01*
X99179849Y-116439962D01*
X99170670Y-116459368D01*
X99159634Y-116477781D01*
X99146846Y-116495024D01*
X99132430Y-116510930D01*
X99116524Y-116525346D01*
X99099281Y-116538134D01*
X99080868Y-116549170D01*
X99061462Y-116558349D01*
X99041250Y-116565581D01*
X99020426Y-116570797D01*
X98999191Y-116573947D01*
X98977750Y-116575000D01*
X98465250Y-116575000D01*
X98443809Y-116573947D01*
X98422574Y-116570797D01*
X98401750Y-116565581D01*
X98381538Y-116558349D01*
X98362132Y-116549170D01*
X98343719Y-116538134D01*
X98326476Y-116525346D01*
X98310570Y-116510930D01*
X98296154Y-116495024D01*
X98283366Y-116477781D01*
X98272330Y-116459368D01*
X98263151Y-116439962D01*
X98255919Y-116419750D01*
X98250703Y-116398926D01*
X98247553Y-116377691D01*
X98246500Y-116356250D01*
X98246500Y-115918750D01*
X98247553Y-115897309D01*
X98250703Y-115876074D01*
X98255919Y-115855250D01*
X98263151Y-115835038D01*
X98272330Y-115815632D01*
X98283366Y-115797219D01*
X98296154Y-115779976D01*
X98310570Y-115764070D01*
X98326476Y-115749654D01*
X98343719Y-115736866D01*
X98362132Y-115725830D01*
X98381538Y-115716651D01*
X98401750Y-115709419D01*
X98422574Y-115704203D01*
X98443809Y-115701053D01*
X98465250Y-115700000D01*
X98977750Y-115700000D01*
X98999191Y-115701053D01*
X98999191Y-115701053D01*
G37*
D12*
X98721500Y-116137500D03*
D13*
X109921000Y-126383000D03*
X109921000Y-127653000D03*
X109921000Y-128923000D03*
X109921000Y-130193000D03*
X109921000Y-131463000D03*
X109921000Y-132733000D03*
X109921000Y-134003000D03*
X109921000Y-135273000D03*
X109921000Y-136543000D03*
X109921000Y-137813000D03*
X97683000Y-130193000D03*
X97683000Y-137813000D03*
X97683000Y-131463000D03*
X97683000Y-136543000D03*
X97683000Y-135273000D03*
X97683000Y-134003000D03*
X97683000Y-128923000D03*
X97683000Y-132733000D03*
X97683000Y-127653000D03*
X97683000Y-126383000D03*
D14*
X100652000Y-124164000D03*
X108272000Y-124164000D03*
X101922000Y-124164000D03*
X107002000Y-124164000D03*
X105732000Y-124164000D03*
X104462000Y-124164000D03*
X99382000Y-124164000D03*
X103192000Y-124164000D03*
D11*
G36*
X106111691Y-115701053D02*
G01*
X106132926Y-115704203D01*
X106153750Y-115709419D01*
X106173962Y-115716651D01*
X106193368Y-115725830D01*
X106211781Y-115736866D01*
X106229024Y-115749654D01*
X106244930Y-115764070D01*
X106259346Y-115779976D01*
X106272134Y-115797219D01*
X106283170Y-115815632D01*
X106292349Y-115835038D01*
X106299581Y-115855250D01*
X106304797Y-115876074D01*
X106307947Y-115897309D01*
X106309000Y-115918750D01*
X106309000Y-116356250D01*
X106307947Y-116377691D01*
X106304797Y-116398926D01*
X106299581Y-116419750D01*
X106292349Y-116439962D01*
X106283170Y-116459368D01*
X106272134Y-116477781D01*
X106259346Y-116495024D01*
X106244930Y-116510930D01*
X106229024Y-116525346D01*
X106211781Y-116538134D01*
X106193368Y-116549170D01*
X106173962Y-116558349D01*
X106153750Y-116565581D01*
X106132926Y-116570797D01*
X106111691Y-116573947D01*
X106090250Y-116575000D01*
X105577750Y-116575000D01*
X105556309Y-116573947D01*
X105535074Y-116570797D01*
X105514250Y-116565581D01*
X105494038Y-116558349D01*
X105474632Y-116549170D01*
X105456219Y-116538134D01*
X105438976Y-116525346D01*
X105423070Y-116510930D01*
X105408654Y-116495024D01*
X105395866Y-116477781D01*
X105384830Y-116459368D01*
X105375651Y-116439962D01*
X105368419Y-116419750D01*
X105363203Y-116398926D01*
X105360053Y-116377691D01*
X105359000Y-116356250D01*
X105359000Y-115918750D01*
X105360053Y-115897309D01*
X105363203Y-115876074D01*
X105368419Y-115855250D01*
X105375651Y-115835038D01*
X105384830Y-115815632D01*
X105395866Y-115797219D01*
X105408654Y-115779976D01*
X105423070Y-115764070D01*
X105438976Y-115749654D01*
X105456219Y-115736866D01*
X105474632Y-115725830D01*
X105494038Y-115716651D01*
X105514250Y-115709419D01*
X105535074Y-115704203D01*
X105556309Y-115701053D01*
X105577750Y-115700000D01*
X106090250Y-115700000D01*
X106111691Y-115701053D01*
X106111691Y-115701053D01*
G37*
D12*
X105834000Y-116137500D03*
D11*
G36*
X106111691Y-117276053D02*
G01*
X106132926Y-117279203D01*
X106153750Y-117284419D01*
X106173962Y-117291651D01*
X106193368Y-117300830D01*
X106211781Y-117311866D01*
X106229024Y-117324654D01*
X106244930Y-117339070D01*
X106259346Y-117354976D01*
X106272134Y-117372219D01*
X106283170Y-117390632D01*
X106292349Y-117410038D01*
X106299581Y-117430250D01*
X106304797Y-117451074D01*
X106307947Y-117472309D01*
X106309000Y-117493750D01*
X106309000Y-117931250D01*
X106307947Y-117952691D01*
X106304797Y-117973926D01*
X106299581Y-117994750D01*
X106292349Y-118014962D01*
X106283170Y-118034368D01*
X106272134Y-118052781D01*
X106259346Y-118070024D01*
X106244930Y-118085930D01*
X106229024Y-118100346D01*
X106211781Y-118113134D01*
X106193368Y-118124170D01*
X106173962Y-118133349D01*
X106153750Y-118140581D01*
X106132926Y-118145797D01*
X106111691Y-118148947D01*
X106090250Y-118150000D01*
X105577750Y-118150000D01*
X105556309Y-118148947D01*
X105535074Y-118145797D01*
X105514250Y-118140581D01*
X105494038Y-118133349D01*
X105474632Y-118124170D01*
X105456219Y-118113134D01*
X105438976Y-118100346D01*
X105423070Y-118085930D01*
X105408654Y-118070024D01*
X105395866Y-118052781D01*
X105384830Y-118034368D01*
X105375651Y-118014962D01*
X105368419Y-117994750D01*
X105363203Y-117973926D01*
X105360053Y-117952691D01*
X105359000Y-117931250D01*
X105359000Y-117493750D01*
X105360053Y-117472309D01*
X105363203Y-117451074D01*
X105368419Y-117430250D01*
X105375651Y-117410038D01*
X105384830Y-117390632D01*
X105395866Y-117372219D01*
X105408654Y-117354976D01*
X105423070Y-117339070D01*
X105438976Y-117324654D01*
X105456219Y-117311866D01*
X105474632Y-117300830D01*
X105494038Y-117291651D01*
X105514250Y-117284419D01*
X105535074Y-117279203D01*
X105556309Y-117276053D01*
X105577750Y-117275000D01*
X106090250Y-117275000D01*
X106111691Y-117276053D01*
X106111691Y-117276053D01*
G37*
D12*
X105834000Y-117712500D03*
D11*
G36*
X109159691Y-117276053D02*
G01*
X109180926Y-117279203D01*
X109201750Y-117284419D01*
X109221962Y-117291651D01*
X109241368Y-117300830D01*
X109259781Y-117311866D01*
X109277024Y-117324654D01*
X109292930Y-117339070D01*
X109307346Y-117354976D01*
X109320134Y-117372219D01*
X109331170Y-117390632D01*
X109340349Y-117410038D01*
X109347581Y-117430250D01*
X109352797Y-117451074D01*
X109355947Y-117472309D01*
X109357000Y-117493750D01*
X109357000Y-117931250D01*
X109355947Y-117952691D01*
X109352797Y-117973926D01*
X109347581Y-117994750D01*
X109340349Y-118014962D01*
X109331170Y-118034368D01*
X109320134Y-118052781D01*
X109307346Y-118070024D01*
X109292930Y-118085930D01*
X109277024Y-118100346D01*
X109259781Y-118113134D01*
X109241368Y-118124170D01*
X109221962Y-118133349D01*
X109201750Y-118140581D01*
X109180926Y-118145797D01*
X109159691Y-118148947D01*
X109138250Y-118150000D01*
X108625750Y-118150000D01*
X108604309Y-118148947D01*
X108583074Y-118145797D01*
X108562250Y-118140581D01*
X108542038Y-118133349D01*
X108522632Y-118124170D01*
X108504219Y-118113134D01*
X108486976Y-118100346D01*
X108471070Y-118085930D01*
X108456654Y-118070024D01*
X108443866Y-118052781D01*
X108432830Y-118034368D01*
X108423651Y-118014962D01*
X108416419Y-117994750D01*
X108411203Y-117973926D01*
X108408053Y-117952691D01*
X108407000Y-117931250D01*
X108407000Y-117493750D01*
X108408053Y-117472309D01*
X108411203Y-117451074D01*
X108416419Y-117430250D01*
X108423651Y-117410038D01*
X108432830Y-117390632D01*
X108443866Y-117372219D01*
X108456654Y-117354976D01*
X108471070Y-117339070D01*
X108486976Y-117324654D01*
X108504219Y-117311866D01*
X108522632Y-117300830D01*
X108542038Y-117291651D01*
X108562250Y-117284419D01*
X108583074Y-117279203D01*
X108604309Y-117276053D01*
X108625750Y-117275000D01*
X109138250Y-117275000D01*
X109159691Y-117276053D01*
X109159691Y-117276053D01*
G37*
D12*
X108882000Y-117712500D03*
D11*
G36*
X109159691Y-115701053D02*
G01*
X109180926Y-115704203D01*
X109201750Y-115709419D01*
X109221962Y-115716651D01*
X109241368Y-115725830D01*
X109259781Y-115736866D01*
X109277024Y-115749654D01*
X109292930Y-115764070D01*
X109307346Y-115779976D01*
X109320134Y-115797219D01*
X109331170Y-115815632D01*
X109340349Y-115835038D01*
X109347581Y-115855250D01*
X109352797Y-115876074D01*
X109355947Y-115897309D01*
X109357000Y-115918750D01*
X109357000Y-116356250D01*
X109355947Y-116377691D01*
X109352797Y-116398926D01*
X109347581Y-116419750D01*
X109340349Y-116439962D01*
X109331170Y-116459368D01*
X109320134Y-116477781D01*
X109307346Y-116495024D01*
X109292930Y-116510930D01*
X109277024Y-116525346D01*
X109259781Y-116538134D01*
X109241368Y-116549170D01*
X109221962Y-116558349D01*
X109201750Y-116565581D01*
X109180926Y-116570797D01*
X109159691Y-116573947D01*
X109138250Y-116575000D01*
X108625750Y-116575000D01*
X108604309Y-116573947D01*
X108583074Y-116570797D01*
X108562250Y-116565581D01*
X108542038Y-116558349D01*
X108522632Y-116549170D01*
X108504219Y-116538134D01*
X108486976Y-116525346D01*
X108471070Y-116510930D01*
X108456654Y-116495024D01*
X108443866Y-116477781D01*
X108432830Y-116459368D01*
X108423651Y-116439962D01*
X108416419Y-116419750D01*
X108411203Y-116398926D01*
X108408053Y-116377691D01*
X108407000Y-116356250D01*
X108407000Y-115918750D01*
X108408053Y-115897309D01*
X108411203Y-115876074D01*
X108416419Y-115855250D01*
X108423651Y-115835038D01*
X108432830Y-115815632D01*
X108443866Y-115797219D01*
X108456654Y-115779976D01*
X108471070Y-115764070D01*
X108486976Y-115749654D01*
X108504219Y-115736866D01*
X108522632Y-115725830D01*
X108542038Y-115716651D01*
X108562250Y-115709419D01*
X108583074Y-115704203D01*
X108604309Y-115701053D01*
X108625750Y-115700000D01*
X109138250Y-115700000D01*
X109159691Y-115701053D01*
X109159691Y-115701053D01*
G37*
D12*
X108882000Y-116137500D03*
D11*
G36*
X107635691Y-115701053D02*
G01*
X107656926Y-115704203D01*
X107677750Y-115709419D01*
X107697962Y-115716651D01*
X107717368Y-115725830D01*
X107735781Y-115736866D01*
X107753024Y-115749654D01*
X107768930Y-115764070D01*
X107783346Y-115779976D01*
X107796134Y-115797219D01*
X107807170Y-115815632D01*
X107816349Y-115835038D01*
X107823581Y-115855250D01*
X107828797Y-115876074D01*
X107831947Y-115897309D01*
X107833000Y-115918750D01*
X107833000Y-116356250D01*
X107831947Y-116377691D01*
X107828797Y-116398926D01*
X107823581Y-116419750D01*
X107816349Y-116439962D01*
X107807170Y-116459368D01*
X107796134Y-116477781D01*
X107783346Y-116495024D01*
X107768930Y-116510930D01*
X107753024Y-116525346D01*
X107735781Y-116538134D01*
X107717368Y-116549170D01*
X107697962Y-116558349D01*
X107677750Y-116565581D01*
X107656926Y-116570797D01*
X107635691Y-116573947D01*
X107614250Y-116575000D01*
X107101750Y-116575000D01*
X107080309Y-116573947D01*
X107059074Y-116570797D01*
X107038250Y-116565581D01*
X107018038Y-116558349D01*
X106998632Y-116549170D01*
X106980219Y-116538134D01*
X106962976Y-116525346D01*
X106947070Y-116510930D01*
X106932654Y-116495024D01*
X106919866Y-116477781D01*
X106908830Y-116459368D01*
X106899651Y-116439962D01*
X106892419Y-116419750D01*
X106887203Y-116398926D01*
X106884053Y-116377691D01*
X106883000Y-116356250D01*
X106883000Y-115918750D01*
X106884053Y-115897309D01*
X106887203Y-115876074D01*
X106892419Y-115855250D01*
X106899651Y-115835038D01*
X106908830Y-115815632D01*
X106919866Y-115797219D01*
X106932654Y-115779976D01*
X106947070Y-115764070D01*
X106962976Y-115749654D01*
X106980219Y-115736866D01*
X106998632Y-115725830D01*
X107018038Y-115716651D01*
X107038250Y-115709419D01*
X107059074Y-115704203D01*
X107080309Y-115701053D01*
X107101750Y-115700000D01*
X107614250Y-115700000D01*
X107635691Y-115701053D01*
X107635691Y-115701053D01*
G37*
D12*
X107358000Y-116137500D03*
D11*
G36*
X107635691Y-117276053D02*
G01*
X107656926Y-117279203D01*
X107677750Y-117284419D01*
X107697962Y-117291651D01*
X107717368Y-117300830D01*
X107735781Y-117311866D01*
X107753024Y-117324654D01*
X107768930Y-117339070D01*
X107783346Y-117354976D01*
X107796134Y-117372219D01*
X107807170Y-117390632D01*
X107816349Y-117410038D01*
X107823581Y-117430250D01*
X107828797Y-117451074D01*
X107831947Y-117472309D01*
X107833000Y-117493750D01*
X107833000Y-117931250D01*
X107831947Y-117952691D01*
X107828797Y-117973926D01*
X107823581Y-117994750D01*
X107816349Y-118014962D01*
X107807170Y-118034368D01*
X107796134Y-118052781D01*
X107783346Y-118070024D01*
X107768930Y-118085930D01*
X107753024Y-118100346D01*
X107735781Y-118113134D01*
X107717368Y-118124170D01*
X107697962Y-118133349D01*
X107677750Y-118140581D01*
X107656926Y-118145797D01*
X107635691Y-118148947D01*
X107614250Y-118150000D01*
X107101750Y-118150000D01*
X107080309Y-118148947D01*
X107059074Y-118145797D01*
X107038250Y-118140581D01*
X107018038Y-118133349D01*
X106998632Y-118124170D01*
X106980219Y-118113134D01*
X106962976Y-118100346D01*
X106947070Y-118085930D01*
X106932654Y-118070024D01*
X106919866Y-118052781D01*
X106908830Y-118034368D01*
X106899651Y-118014962D01*
X106892419Y-117994750D01*
X106887203Y-117973926D01*
X106884053Y-117952691D01*
X106883000Y-117931250D01*
X106883000Y-117493750D01*
X106884053Y-117472309D01*
X106887203Y-117451074D01*
X106892419Y-117430250D01*
X106899651Y-117410038D01*
X106908830Y-117390632D01*
X106919866Y-117372219D01*
X106932654Y-117354976D01*
X106947070Y-117339070D01*
X106962976Y-117324654D01*
X106980219Y-117311866D01*
X106998632Y-117300830D01*
X107018038Y-117291651D01*
X107038250Y-117284419D01*
X107059074Y-117279203D01*
X107080309Y-117276053D01*
X107101750Y-117275000D01*
X107614250Y-117275000D01*
X107635691Y-117276053D01*
X107635691Y-117276053D01*
G37*
D12*
X107358000Y-117712500D03*
D15*
X104752000Y-120243000D03*
X102852000Y-120243000D03*
X103802000Y-122243000D03*
D16*
X103802000Y-118455000D03*
X103802000Y-115655000D03*
D17*
X108816000Y-122343000D03*
X106916000Y-122343000D03*
X106916000Y-120143000D03*
X107866000Y-120143000D03*
X108816000Y-120143000D03*
X100687500Y-120143000D03*
X99737500Y-120143000D03*
X98787500Y-120143000D03*
X98787500Y-122343000D03*
X100687500Y-122343000D03*
M02*
