M48
; DRILL file {KiCad 5.1.4+dfsg1-1} date Wed 01 Apr 2020 11:30:35 AM CEST
; FORMAT={-:-/ absolute / inch / decimal}
; #@! TF.CreationDate,2020-04-01T11:30:35+02:00
; #@! TF.GenerationSoftware,Kicad,Pcbnew,5.1.4+dfsg1-1
FMAT,2
INCH
T1C0.0157
T2C0.0197
T3C0.0335
T4C0.0276
%
G90
G05
T1
X3.8854Y-5.3053
X3.8891Y-4.9753
X3.9649Y-5.2803
X3.9766Y-4.6632
X4.0461Y-4.7901
X4.0867Y-4.7056
X4.1246Y-4.7896
X4.1379Y-4.8458
X4.1968Y-4.6634
X4.3176Y-4.6625
T2
X4.0867Y-5.2733
X4.0867Y-5.3733
X3.9338Y-4.3291
X3.9338Y-4.3491
X3.9341Y-4.3387
X3.9388Y-4.4741
X3.9388Y-4.4841
X3.9388Y-4.4941
X4.2338Y-4.4741
X4.2338Y-4.4841
X4.2338Y-4.4941
X4.2388Y-4.3387
X4.2388Y-4.3491
X4.2393Y-4.3287
X3.9276Y-5.0557
X3.9276Y-5.1057
X3.9276Y-5.1557
X3.9276Y-5.2057
X3.9276Y-5.2557
X3.9276Y-5.3057
X3.9276Y-5.3557
X3.9276Y-5.4057
X3.9376Y-4.9557
X3.9876Y-4.9557
X4.0376Y-4.9557
X4.0876Y-4.9557
X4.1376Y-4.9557
X4.1876Y-4.9557
X4.2376Y-4.9557
X4.0867Y-5.0733
X4.0867Y-5.1733
T3
X3.7867Y-4.4233
X3.7867Y-4.5233
X3.7867Y-4.6233
X3.7867Y-4.7233
X3.7867Y-4.8233
X3.7867Y-4.9233
X3.7867Y-5.0233
X3.7867Y-5.1233
X3.7867Y-5.2233
X3.7867Y-5.3233
X3.7867Y-5.4233
X3.7867Y-5.5233
X4.3867Y-4.4233
X4.3867Y-4.5233
X4.3867Y-4.6233
X4.3867Y-4.7233
X4.3867Y-4.8233
X4.3867Y-4.9233
X4.3867Y-5.0233
X4.3867Y-5.1233
X4.3867Y-5.2233
X4.3867Y-5.3233
X4.3867Y-5.4233
X4.3867Y-5.5233
X3.7867Y-4.3233
X4.3867Y-4.3233
T4
X4.0296Y-4.3365
X4.1438Y-4.3365
T0
M30
