G04 #@! TF.GenerationSoftware,KiCad,Pcbnew,5.1.4+dfsg1-1*
G04 #@! TF.CreationDate,2020-04-01T11:30:31+02:00*
G04 #@! TF.ProjectId,nrfmicro,6e72666d-6963-4726-9f2e-6b696361645f,rev?*
G04 #@! TF.SameCoordinates,Original*
G04 #@! TF.FileFunction,Legend,Bot*
G04 #@! TF.FilePolarity,Positive*
%FSLAX46Y46*%
G04 Gerber Fmt 4.6, Leading zero omitted, Abs format (unit mm)*
G04 Created by KiCad (PCBNEW 5.1.4+dfsg1-1) date 2020-04-01 11:30:31*
%MOMM*%
%LPD*%
G04 APERTURE LIST*
%ADD10C,0.150000*%
%ADD11C,0.200000*%
G04 APERTURE END LIST*
D10*
X106722485Y-117504203D02*
X105960580Y-117504203D01*
X106341533Y-117885155D02*
X106341533Y-117123251D01*
X106182485Y-113392655D02*
X105992009Y-113392655D01*
X105896771Y-113440275D01*
X105801533Y-113535513D01*
X105753913Y-113725989D01*
X105753913Y-114059322D01*
X105801533Y-114249798D01*
X105896771Y-114345036D01*
X105992009Y-114392655D01*
X106182485Y-114392655D01*
X106277723Y-114345036D01*
X106372961Y-114249798D01*
X106420580Y-114059322D01*
X106420580Y-113725989D01*
X106372961Y-113535513D01*
X106277723Y-113440275D01*
X106182485Y-113392655D01*
X105325342Y-114392655D02*
X105325342Y-113392655D01*
X104753913Y-114392655D01*
X104753913Y-113392655D01*
X103325342Y-113392655D02*
X103134866Y-113392655D01*
X103039628Y-113440275D01*
X102944390Y-113535513D01*
X102896771Y-113725989D01*
X102896771Y-114059322D01*
X102944390Y-114249798D01*
X103039628Y-114345036D01*
X103134866Y-114392655D01*
X103325342Y-114392655D01*
X103420580Y-114345036D01*
X103515818Y-114249798D01*
X103563437Y-114059322D01*
X103563437Y-113725989D01*
X103515818Y-113535513D01*
X103420580Y-113440275D01*
X103325342Y-113392655D01*
X102134866Y-113868846D02*
X102468199Y-113868846D01*
X102468199Y-114392655D02*
X102468199Y-113392655D01*
X101992009Y-113392655D01*
X101277723Y-113868846D02*
X101611056Y-113868846D01*
X101611056Y-114392655D02*
X101611056Y-113392655D01*
X101134866Y-113392655D01*
X106630104Y-138714917D02*
X106630104Y-139314917D01*
X106630104Y-138800632D02*
X106587247Y-138757775D01*
X106501533Y-138714917D01*
X106372961Y-138714917D01*
X106287247Y-138757775D01*
X106244390Y-138843489D01*
X106244390Y-139314917D01*
X105301533Y-139314917D02*
X105601533Y-138886346D01*
X105815818Y-139314917D02*
X105815818Y-138414917D01*
X105472961Y-138414917D01*
X105387247Y-138457775D01*
X105344390Y-138500632D01*
X105301533Y-138586346D01*
X105301533Y-138714917D01*
X105344390Y-138800632D01*
X105387247Y-138843489D01*
X105472961Y-138886346D01*
X105815818Y-138886346D01*
X104615818Y-138843489D02*
X104915818Y-138843489D01*
X104915818Y-139314917D02*
X104915818Y-138414917D01*
X104487247Y-138414917D01*
X104144390Y-139314917D02*
X104144390Y-138414917D01*
X103844390Y-139057775D01*
X103544390Y-138414917D01*
X103544390Y-139314917D01*
X103115818Y-139314917D02*
X103115818Y-138714917D01*
X103115818Y-138414917D02*
X103158675Y-138457775D01*
X103115818Y-138500632D01*
X103072961Y-138457775D01*
X103115818Y-138414917D01*
X103115818Y-138500632D01*
X102301532Y-139272060D02*
X102387247Y-139314917D01*
X102558675Y-139314917D01*
X102644390Y-139272060D01*
X102687247Y-139229203D01*
X102730104Y-139143489D01*
X102730104Y-138886346D01*
X102687247Y-138800632D01*
X102644390Y-138757775D01*
X102558675Y-138714917D01*
X102387247Y-138714917D01*
X102301532Y-138757775D01*
X101915818Y-139314917D02*
X101915818Y-138714917D01*
X101915818Y-138886346D02*
X101872961Y-138800632D01*
X101830104Y-138757775D01*
X101744390Y-138714917D01*
X101658675Y-138714917D01*
X101230104Y-139314917D02*
X101315818Y-139272060D01*
X101358675Y-139229203D01*
X101401532Y-139143489D01*
X101401532Y-138886346D01*
X101358675Y-138800632D01*
X101315818Y-138757775D01*
X101230104Y-138714917D01*
X101101532Y-138714917D01*
X101015818Y-138757775D01*
X100972961Y-138800632D01*
X100930104Y-138886346D01*
X100930104Y-139143489D01*
X100972961Y-139229203D01*
X101015818Y-139272060D01*
X101101532Y-139314917D01*
X101230104Y-139314917D01*
X106265818Y-140814917D02*
X106265818Y-140214917D01*
X106265818Y-140300632D02*
X106222961Y-140257775D01*
X106137247Y-140214917D01*
X106008675Y-140214917D01*
X105922961Y-140257775D01*
X105880104Y-140343489D01*
X105880104Y-140814917D01*
X105880104Y-140343489D02*
X105837247Y-140257775D01*
X105751533Y-140214917D01*
X105622961Y-140214917D01*
X105537247Y-140257775D01*
X105494390Y-140343489D01*
X105494390Y-140814917D01*
X105065818Y-140814917D02*
X105065818Y-140214917D01*
X105065818Y-139914917D02*
X105108675Y-139957775D01*
X105065818Y-140000632D01*
X105022961Y-139957775D01*
X105065818Y-139914917D01*
X105065818Y-140000632D01*
X104637247Y-140214917D02*
X104637247Y-140814917D01*
X104637247Y-140300632D02*
X104594390Y-140257775D01*
X104508675Y-140214917D01*
X104380104Y-140214917D01*
X104294390Y-140257775D01*
X104251533Y-140343489D01*
X104251533Y-140814917D01*
X103822961Y-140814917D02*
X103822961Y-140214917D01*
X103822961Y-139914917D02*
X103865818Y-139957775D01*
X103822961Y-140000632D01*
X103780104Y-139957775D01*
X103822961Y-139914917D01*
X103822961Y-140000632D01*
X103394390Y-140814917D02*
X103394390Y-140214917D01*
X103394390Y-140300632D02*
X103351533Y-140257775D01*
X103265818Y-140214917D01*
X103137247Y-140214917D01*
X103051533Y-140257775D01*
X103008675Y-140343489D01*
X103008675Y-140814917D01*
X103008675Y-140343489D02*
X102965818Y-140257775D01*
X102880104Y-140214917D01*
X102751533Y-140214917D01*
X102665818Y-140257775D01*
X102622961Y-140343489D01*
X102622961Y-140814917D01*
X101808675Y-140814917D02*
X101808675Y-140343489D01*
X101851533Y-140257775D01*
X101937247Y-140214917D01*
X102108675Y-140214917D01*
X102194390Y-140257775D01*
X101808675Y-140772060D02*
X101894390Y-140814917D01*
X102108675Y-140814917D01*
X102194390Y-140772060D01*
X102237247Y-140686346D01*
X102237247Y-140600632D01*
X102194390Y-140514917D01*
X102108675Y-140472060D01*
X101894390Y-140472060D01*
X101808675Y-140429203D01*
X101251533Y-140814917D02*
X101337247Y-140772060D01*
X101380104Y-140686346D01*
X101380104Y-139914917D01*
D11*
X101218000Y-123998000D02*
X106418000Y-123998000D01*
X99918000Y-116398000D02*
X99918000Y-120798000D01*
X107718000Y-116398000D02*
X105453000Y-116398000D01*
X107718000Y-116398000D02*
X107718000Y-120798000D01*
X102183000Y-116398000D02*
X99918000Y-116398000D01*
D10*
X102848199Y-130786108D02*
X102148199Y-130786108D01*
X102148199Y-130952775D01*
X102181533Y-131052775D01*
X102248199Y-131119441D01*
X102314866Y-131152775D01*
X102448199Y-131186108D01*
X102548199Y-131186108D01*
X102681533Y-131152775D01*
X102748199Y-131119441D01*
X102814866Y-131052775D01*
X102848199Y-130952775D01*
X102848199Y-130786108D01*
X102581533Y-131486108D02*
X102581533Y-132019441D01*
X102848199Y-131752775D02*
X102314866Y-131752775D01*
X102848199Y-128246108D02*
X102148199Y-128246108D01*
X102148199Y-128412775D01*
X102181533Y-128512775D01*
X102248199Y-128579441D01*
X102314866Y-128612775D01*
X102448199Y-128646108D01*
X102548199Y-128646108D01*
X102681533Y-128612775D01*
X102748199Y-128579441D01*
X102814866Y-128512775D01*
X102848199Y-128412775D01*
X102848199Y-128246108D01*
X102581533Y-128946108D02*
X102581533Y-129479441D01*
X103884666Y-120169679D02*
X103884666Y-120741108D01*
X103922761Y-120855394D01*
X103998952Y-120931584D01*
X104113238Y-120969679D01*
X104189428Y-120969679D01*
X103160857Y-120436346D02*
X103160857Y-120969679D01*
X103351333Y-120131584D02*
X103541809Y-120703013D01*
X103046571Y-120703013D01*
X105486699Y-134892775D02*
X105453366Y-134792775D01*
X105453366Y-134626108D01*
X105486699Y-134559441D01*
X105520033Y-134526108D01*
X105586699Y-134492775D01*
X105653366Y-134492775D01*
X105720033Y-134526108D01*
X105753366Y-134559441D01*
X105786699Y-134626108D01*
X105820033Y-134759441D01*
X105853366Y-134826108D01*
X105886699Y-134859441D01*
X105953366Y-134892775D01*
X106020033Y-134892775D01*
X106086699Y-134859441D01*
X106120033Y-134826108D01*
X106153366Y-134759441D01*
X106153366Y-134592775D01*
X106120033Y-134492775D01*
X106153366Y-134259441D02*
X105453366Y-134092775D01*
X105953366Y-133959441D01*
X105453366Y-133826108D01*
X106153366Y-133659441D01*
X105520033Y-132992775D02*
X105486699Y-133026108D01*
X105453366Y-133126108D01*
X105453366Y-133192775D01*
X105486699Y-133292775D01*
X105553366Y-133359441D01*
X105620033Y-133392775D01*
X105753366Y-133426108D01*
X105853366Y-133426108D01*
X105986699Y-133392775D01*
X106053366Y-133359441D01*
X106120033Y-133292775D01*
X106153366Y-133192775D01*
X106153366Y-133126108D01*
X106120033Y-133026108D01*
X106086699Y-132992775D01*
X105486699Y-137432775D02*
X105453366Y-137332775D01*
X105453366Y-137166108D01*
X105486699Y-137099441D01*
X105520033Y-137066108D01*
X105586699Y-137032775D01*
X105653366Y-137032775D01*
X105720033Y-137066108D01*
X105753366Y-137099441D01*
X105786699Y-137166108D01*
X105820033Y-137299441D01*
X105853366Y-137366108D01*
X105886699Y-137399441D01*
X105953366Y-137432775D01*
X106020033Y-137432775D01*
X106086699Y-137399441D01*
X106120033Y-137366108D01*
X106153366Y-137299441D01*
X106153366Y-137132775D01*
X106120033Y-137032775D01*
X106153366Y-136799441D02*
X105453366Y-136632775D01*
X105953366Y-136499441D01*
X105453366Y-136366108D01*
X106153366Y-136199441D01*
X105453366Y-135932775D02*
X106153366Y-135932775D01*
X106153366Y-135766108D01*
X106120033Y-135666108D01*
X106053366Y-135599441D01*
X105986699Y-135566108D01*
X105853366Y-135532775D01*
X105753366Y-135532775D01*
X105620033Y-135566108D01*
X105553366Y-135599441D01*
X105486699Y-135666108D01*
X105453366Y-135766108D01*
X105453366Y-135932775D01*
X109586857Y-109222523D02*
X109624952Y-109336809D01*
X109663047Y-109374904D01*
X109739238Y-109413000D01*
X109853523Y-109413000D01*
X109929714Y-109374904D01*
X109967809Y-109336809D01*
X110005904Y-109260619D01*
X110005904Y-108955857D01*
X109205904Y-108955857D01*
X109205904Y-109222523D01*
X109244000Y-109298714D01*
X109282095Y-109336809D01*
X109358285Y-109374904D01*
X109434476Y-109374904D01*
X109510666Y-109336809D01*
X109548761Y-109298714D01*
X109586857Y-109222523D01*
X109586857Y-108955857D01*
X109777333Y-109717761D02*
X109777333Y-110098714D01*
X110005904Y-109641571D02*
X109205904Y-109908238D01*
X110005904Y-110174904D01*
X109205904Y-110327285D02*
X109205904Y-110784428D01*
X110005904Y-110555857D02*
X109205904Y-110555857D01*
X98360000Y-110422523D02*
X98398095Y-110498714D01*
X98398095Y-110613000D01*
X98360000Y-110727285D01*
X98283809Y-110803476D01*
X98207619Y-110841571D01*
X98055238Y-110879666D01*
X97940952Y-110879666D01*
X97788571Y-110841571D01*
X97712380Y-110803476D01*
X97636190Y-110727285D01*
X97598095Y-110613000D01*
X97598095Y-110536809D01*
X97636190Y-110422523D01*
X97674285Y-110384428D01*
X97940952Y-110384428D01*
X97940952Y-110536809D01*
X97598095Y-110041571D02*
X98398095Y-110041571D01*
X97598095Y-109584428D01*
X98398095Y-109584428D01*
X97598095Y-109203476D02*
X98398095Y-109203476D01*
X98398095Y-109013000D01*
X98360000Y-108898714D01*
X98283809Y-108822523D01*
X98207619Y-108784428D01*
X98055238Y-108746333D01*
X97940952Y-108746333D01*
X97788571Y-108784428D01*
X97712380Y-108822523D01*
X97636190Y-108898714D01*
X97598095Y-109013000D01*
X97598095Y-109203476D01*
X104868666Y-109628809D02*
X104754380Y-109666904D01*
X104563904Y-109666904D01*
X104487714Y-109628809D01*
X104449619Y-109590714D01*
X104411523Y-109514523D01*
X104411523Y-109438333D01*
X104449619Y-109362142D01*
X104487714Y-109324047D01*
X104563904Y-109285952D01*
X104716285Y-109247857D01*
X104792476Y-109209761D01*
X104830571Y-109171666D01*
X104868666Y-109095476D01*
X104868666Y-109019285D01*
X104830571Y-108943095D01*
X104792476Y-108905000D01*
X104716285Y-108866904D01*
X104525809Y-108866904D01*
X104411523Y-108905000D01*
X104144857Y-108866904D02*
X103954380Y-109666904D01*
X103802000Y-109095476D01*
X103649619Y-109666904D01*
X103459142Y-108866904D01*
X102735333Y-109666904D02*
X103192476Y-109666904D01*
X102963904Y-109666904D02*
X102963904Y-108866904D01*
X103040095Y-108981190D01*
X103116285Y-109057380D01*
X103192476Y-109095476D01*
X110005437Y-111800394D02*
X109624485Y-111533727D01*
X110005437Y-111343251D02*
X109205437Y-111343251D01*
X109205437Y-111648013D01*
X109243533Y-111724203D01*
X109281628Y-111762298D01*
X109357818Y-111800394D01*
X109472104Y-111800394D01*
X109548294Y-111762298D01*
X109586390Y-111724203D01*
X109624485Y-111648013D01*
X109624485Y-111343251D01*
X109776866Y-112105155D02*
X109776866Y-112486108D01*
X110005437Y-112028965D02*
X109205437Y-112295632D01*
X110005437Y-112562298D01*
X109205437Y-112752775D02*
X110005437Y-112943251D01*
X109434009Y-113095632D01*
X110005437Y-113248013D01*
X109205437Y-113438489D01*
X98397628Y-113152775D02*
X98397628Y-113076584D01*
X98359533Y-113000394D01*
X98321437Y-112962298D01*
X98245247Y-112924203D01*
X98092866Y-112886108D01*
X97902390Y-112886108D01*
X97750009Y-112924203D01*
X97673818Y-112962298D01*
X97635723Y-113000394D01*
X97597628Y-113076584D01*
X97597628Y-113152775D01*
X97635723Y-113228965D01*
X97673818Y-113267060D01*
X97750009Y-113305155D01*
X97902390Y-113343251D01*
X98092866Y-113343251D01*
X98245247Y-113305155D01*
X98321437Y-113267060D01*
X98359533Y-113228965D01*
X98397628Y-113152775D01*
X98397628Y-112390870D02*
X98397628Y-112314679D01*
X98359533Y-112238489D01*
X98321437Y-112200394D01*
X98245247Y-112162298D01*
X98092866Y-112124203D01*
X97902390Y-112124203D01*
X97750009Y-112162298D01*
X97673818Y-112200394D01*
X97635723Y-112238489D01*
X97597628Y-112314679D01*
X97597628Y-112390870D01*
X97635723Y-112467060D01*
X97673818Y-112505155D01*
X97750009Y-112543251D01*
X97902390Y-112581346D01*
X98092866Y-112581346D01*
X98245247Y-112543251D01*
X98321437Y-112505155D01*
X98359533Y-112467060D01*
X98397628Y-112390870D01*
X98397628Y-111438489D02*
X98397628Y-111590870D01*
X98359533Y-111667060D01*
X98321437Y-111705155D01*
X98207152Y-111781346D01*
X98054771Y-111819441D01*
X97750009Y-111819441D01*
X97673818Y-111781346D01*
X97635723Y-111743251D01*
X97597628Y-111667060D01*
X97597628Y-111514679D01*
X97635723Y-111438489D01*
X97673818Y-111400394D01*
X97750009Y-111362298D01*
X97940485Y-111362298D01*
X98016675Y-111400394D01*
X98054771Y-111438489D01*
X98092866Y-111514679D01*
X98092866Y-111667060D01*
X98054771Y-111743251D01*
X98016675Y-111781346D01*
X97940485Y-111819441D01*
X98397628Y-115692775D02*
X98397628Y-115616584D01*
X98359533Y-115540394D01*
X98321437Y-115502298D01*
X98245247Y-115464203D01*
X98092866Y-115426108D01*
X97902390Y-115426108D01*
X97750009Y-115464203D01*
X97673818Y-115502298D01*
X97635723Y-115540394D01*
X97597628Y-115616584D01*
X97597628Y-115692775D01*
X97635723Y-115768965D01*
X97673818Y-115807060D01*
X97750009Y-115845155D01*
X97902390Y-115883251D01*
X98092866Y-115883251D01*
X98245247Y-115845155D01*
X98321437Y-115807060D01*
X98359533Y-115768965D01*
X98397628Y-115692775D01*
X98397628Y-114930870D02*
X98397628Y-114854679D01*
X98359533Y-114778489D01*
X98321437Y-114740394D01*
X98245247Y-114702298D01*
X98092866Y-114664203D01*
X97902390Y-114664203D01*
X97750009Y-114702298D01*
X97673818Y-114740394D01*
X97635723Y-114778489D01*
X97597628Y-114854679D01*
X97597628Y-114930870D01*
X97635723Y-115007060D01*
X97673818Y-115045155D01*
X97750009Y-115083251D01*
X97902390Y-115121346D01*
X98092866Y-115121346D01*
X98245247Y-115083251D01*
X98321437Y-115045155D01*
X98359533Y-115007060D01*
X98397628Y-114930870D01*
X98054771Y-114207060D02*
X98092866Y-114283251D01*
X98130961Y-114321346D01*
X98207152Y-114359441D01*
X98245247Y-114359441D01*
X98321437Y-114321346D01*
X98359533Y-114283251D01*
X98397628Y-114207060D01*
X98397628Y-114054679D01*
X98359533Y-113978489D01*
X98321437Y-113940394D01*
X98245247Y-113902298D01*
X98207152Y-113902298D01*
X98130961Y-113940394D01*
X98092866Y-113978489D01*
X98054771Y-114054679D01*
X98054771Y-114207060D01*
X98016675Y-114283251D01*
X97978580Y-114321346D01*
X97902390Y-114359441D01*
X97750009Y-114359441D01*
X97673818Y-114321346D01*
X97635723Y-114283251D01*
X97597628Y-114207060D01*
X97597628Y-114054679D01*
X97635723Y-113978489D01*
X97673818Y-113940394D01*
X97750009Y-113902298D01*
X97902390Y-113902298D01*
X97978580Y-113940394D01*
X98016675Y-113978489D01*
X98054771Y-114054679D01*
X98359533Y-118042298D02*
X98397628Y-118118489D01*
X98397628Y-118232775D01*
X98359533Y-118347060D01*
X98283342Y-118423251D01*
X98207152Y-118461346D01*
X98054771Y-118499441D01*
X97940485Y-118499441D01*
X97788104Y-118461346D01*
X97711913Y-118423251D01*
X97635723Y-118347060D01*
X97597628Y-118232775D01*
X97597628Y-118156584D01*
X97635723Y-118042298D01*
X97673818Y-118004203D01*
X97940485Y-118004203D01*
X97940485Y-118156584D01*
X97597628Y-117661346D02*
X98397628Y-117661346D01*
X97597628Y-117204203D01*
X98397628Y-117204203D01*
X97597628Y-116823251D02*
X98397628Y-116823251D01*
X98397628Y-116632775D01*
X98359533Y-116518489D01*
X98283342Y-116442298D01*
X98207152Y-116404203D01*
X98054771Y-116366108D01*
X97940485Y-116366108D01*
X97788104Y-116404203D01*
X97711913Y-116442298D01*
X97635723Y-116518489D01*
X97597628Y-116632775D01*
X97597628Y-116823251D01*
X98359533Y-120582298D02*
X98397628Y-120658489D01*
X98397628Y-120772775D01*
X98359533Y-120887060D01*
X98283342Y-120963251D01*
X98207152Y-121001346D01*
X98054771Y-121039441D01*
X97940485Y-121039441D01*
X97788104Y-121001346D01*
X97711913Y-120963251D01*
X97635723Y-120887060D01*
X97597628Y-120772775D01*
X97597628Y-120696584D01*
X97635723Y-120582298D01*
X97673818Y-120544203D01*
X97940485Y-120544203D01*
X97940485Y-120696584D01*
X97597628Y-120201346D02*
X98397628Y-120201346D01*
X97597628Y-119744203D01*
X98397628Y-119744203D01*
X97597628Y-119363251D02*
X98397628Y-119363251D01*
X98397628Y-119172775D01*
X98359533Y-119058489D01*
X98283342Y-118982298D01*
X98207152Y-118944203D01*
X98054771Y-118906108D01*
X97940485Y-118906108D01*
X97788104Y-118944203D01*
X97711913Y-118982298D01*
X97635723Y-119058489D01*
X97597628Y-119172775D01*
X97597628Y-119363251D01*
X110005437Y-116994679D02*
X109624485Y-116728013D01*
X110005437Y-116537536D02*
X109205437Y-116537536D01*
X109205437Y-116842298D01*
X109243533Y-116918489D01*
X109281628Y-116956584D01*
X109357818Y-116994679D01*
X109472104Y-116994679D01*
X109548294Y-116956584D01*
X109586390Y-116918489D01*
X109624485Y-116842298D01*
X109624485Y-116537536D01*
X109967342Y-117299441D02*
X110005437Y-117413727D01*
X110005437Y-117604203D01*
X109967342Y-117680394D01*
X109929247Y-117718489D01*
X109853056Y-117756584D01*
X109776866Y-117756584D01*
X109700675Y-117718489D01*
X109662580Y-117680394D01*
X109624485Y-117604203D01*
X109586390Y-117451822D01*
X109548294Y-117375632D01*
X109510199Y-117337536D01*
X109434009Y-117299441D01*
X109357818Y-117299441D01*
X109281628Y-117337536D01*
X109243533Y-117375632D01*
X109205437Y-117451822D01*
X109205437Y-117642298D01*
X109243533Y-117756584D01*
X109205437Y-117985155D02*
X109205437Y-118442298D01*
X110005437Y-118213727D02*
X109205437Y-118213727D01*
X109243533Y-114283251D02*
X109205437Y-114207060D01*
X109205437Y-114092775D01*
X109243533Y-113978489D01*
X109319723Y-113902298D01*
X109395913Y-113864203D01*
X109548294Y-113826108D01*
X109662580Y-113826108D01*
X109814961Y-113864203D01*
X109891152Y-113902298D01*
X109967342Y-113978489D01*
X110005437Y-114092775D01*
X110005437Y-114168965D01*
X109967342Y-114283251D01*
X109929247Y-114321346D01*
X109662580Y-114321346D01*
X109662580Y-114168965D01*
X110005437Y-114664203D02*
X109205437Y-114664203D01*
X110005437Y-115121346D01*
X109205437Y-115121346D01*
X110005437Y-115502298D02*
X109205437Y-115502298D01*
X109205437Y-115692775D01*
X109243533Y-115807060D01*
X109319723Y-115883251D01*
X109395913Y-115921346D01*
X109548294Y-115959441D01*
X109662580Y-115959441D01*
X109814961Y-115921346D01*
X109891152Y-115883251D01*
X109967342Y-115807060D01*
X110005437Y-115692775D01*
X110005437Y-115502298D01*
X109205437Y-118906108D02*
X110005437Y-119172775D01*
X109205437Y-119439441D01*
X109929247Y-120163251D02*
X109967342Y-120125155D01*
X110005437Y-120010870D01*
X110005437Y-119934679D01*
X109967342Y-119820394D01*
X109891152Y-119744203D01*
X109814961Y-119706108D01*
X109662580Y-119668013D01*
X109548294Y-119668013D01*
X109395913Y-119706108D01*
X109319723Y-119744203D01*
X109243533Y-119820394D01*
X109205437Y-119934679D01*
X109205437Y-120010870D01*
X109243533Y-120125155D01*
X109281628Y-120163251D01*
X109929247Y-120963251D02*
X109967342Y-120925155D01*
X110005437Y-120810870D01*
X110005437Y-120734679D01*
X109967342Y-120620394D01*
X109891152Y-120544203D01*
X109814961Y-120506108D01*
X109662580Y-120468013D01*
X109548294Y-120468013D01*
X109395913Y-120506108D01*
X109319723Y-120544203D01*
X109243533Y-120620394D01*
X109205437Y-120734679D01*
X109205437Y-120810870D01*
X109243533Y-120925155D01*
X109281628Y-120963251D01*
X98397628Y-138552775D02*
X98397628Y-138476584D01*
X98359533Y-138400394D01*
X98321437Y-138362298D01*
X98245247Y-138324203D01*
X98092866Y-138286108D01*
X97902390Y-138286108D01*
X97750009Y-138324203D01*
X97673818Y-138362298D01*
X97635723Y-138400394D01*
X97597628Y-138476584D01*
X97597628Y-138552775D01*
X97635723Y-138628965D01*
X97673818Y-138667060D01*
X97750009Y-138705155D01*
X97902390Y-138743251D01*
X98092866Y-138743251D01*
X98245247Y-138705155D01*
X98321437Y-138667060D01*
X98359533Y-138628965D01*
X98397628Y-138552775D01*
X97597628Y-137524203D02*
X97597628Y-137981346D01*
X97597628Y-137752775D02*
X98397628Y-137752775D01*
X98283342Y-137828965D01*
X98207152Y-137905155D01*
X98169056Y-137981346D01*
X98397628Y-137028965D02*
X98397628Y-136952775D01*
X98359533Y-136876584D01*
X98321437Y-136838489D01*
X98245247Y-136800394D01*
X98092866Y-136762298D01*
X97902390Y-136762298D01*
X97750009Y-136800394D01*
X97673818Y-136838489D01*
X97635723Y-136876584D01*
X97597628Y-136952775D01*
X97597628Y-137028965D01*
X97635723Y-137105155D01*
X97673818Y-137143251D01*
X97750009Y-137181346D01*
X97902390Y-137219441D01*
X98092866Y-137219441D01*
X98245247Y-137181346D01*
X98321437Y-137143251D01*
X98359533Y-137105155D01*
X98397628Y-137028965D01*
X98397628Y-125852775D02*
X98397628Y-125776584D01*
X98359533Y-125700394D01*
X98321437Y-125662298D01*
X98245247Y-125624203D01*
X98092866Y-125586108D01*
X97902390Y-125586108D01*
X97750009Y-125624203D01*
X97673818Y-125662298D01*
X97635723Y-125700394D01*
X97597628Y-125776584D01*
X97597628Y-125852775D01*
X97635723Y-125928965D01*
X97673818Y-125967060D01*
X97750009Y-126005155D01*
X97902390Y-126043251D01*
X98092866Y-126043251D01*
X98245247Y-126005155D01*
X98321437Y-125967060D01*
X98359533Y-125928965D01*
X98397628Y-125852775D01*
X97597628Y-124824203D02*
X97597628Y-125281346D01*
X97597628Y-125052775D02*
X98397628Y-125052775D01*
X98283342Y-125128965D01*
X98207152Y-125205155D01*
X98169056Y-125281346D01*
X98397628Y-124557536D02*
X98397628Y-124024203D01*
X97597628Y-124367060D01*
X98397628Y-128392775D02*
X98397628Y-128316584D01*
X98359533Y-128240394D01*
X98321437Y-128202298D01*
X98245247Y-128164203D01*
X98092866Y-128126108D01*
X97902390Y-128126108D01*
X97750009Y-128164203D01*
X97673818Y-128202298D01*
X97635723Y-128240394D01*
X97597628Y-128316584D01*
X97597628Y-128392775D01*
X97635723Y-128468965D01*
X97673818Y-128507060D01*
X97750009Y-128545155D01*
X97902390Y-128583251D01*
X98092866Y-128583251D01*
X98245247Y-128545155D01*
X98321437Y-128507060D01*
X98359533Y-128468965D01*
X98397628Y-128392775D01*
X98321437Y-127821346D02*
X98359533Y-127783251D01*
X98397628Y-127707060D01*
X98397628Y-127516584D01*
X98359533Y-127440394D01*
X98321437Y-127402298D01*
X98245247Y-127364203D01*
X98169056Y-127364203D01*
X98054771Y-127402298D01*
X97597628Y-127859441D01*
X97597628Y-127364203D01*
X98397628Y-126868965D02*
X98397628Y-126792775D01*
X98359533Y-126716584D01*
X98321437Y-126678489D01*
X98245247Y-126640394D01*
X98092866Y-126602298D01*
X97902390Y-126602298D01*
X97750009Y-126640394D01*
X97673818Y-126678489D01*
X97635723Y-126716584D01*
X97597628Y-126792775D01*
X97597628Y-126868965D01*
X97635723Y-126945155D01*
X97673818Y-126983251D01*
X97750009Y-127021346D01*
X97902390Y-127059441D01*
X98092866Y-127059441D01*
X98245247Y-127021346D01*
X98321437Y-126983251D01*
X98359533Y-126945155D01*
X98397628Y-126868965D01*
X98397628Y-123312775D02*
X98397628Y-123236584D01*
X98359533Y-123160394D01*
X98321437Y-123122298D01*
X98245247Y-123084203D01*
X98092866Y-123046108D01*
X97902390Y-123046108D01*
X97750009Y-123084203D01*
X97673818Y-123122298D01*
X97635723Y-123160394D01*
X97597628Y-123236584D01*
X97597628Y-123312775D01*
X97635723Y-123388965D01*
X97673818Y-123427060D01*
X97750009Y-123465155D01*
X97902390Y-123503251D01*
X98092866Y-123503251D01*
X98245247Y-123465155D01*
X98321437Y-123427060D01*
X98359533Y-123388965D01*
X98397628Y-123312775D01*
X97597628Y-122284203D02*
X97597628Y-122741346D01*
X97597628Y-122512775D02*
X98397628Y-122512775D01*
X98283342Y-122588965D01*
X98207152Y-122665155D01*
X98169056Y-122741346D01*
X98397628Y-121560394D02*
X98397628Y-121941346D01*
X98016675Y-121979441D01*
X98054771Y-121941346D01*
X98092866Y-121865155D01*
X98092866Y-121674679D01*
X98054771Y-121598489D01*
X98016675Y-121560394D01*
X97940485Y-121522298D01*
X97750009Y-121522298D01*
X97673818Y-121560394D01*
X97635723Y-121598489D01*
X97597628Y-121674679D01*
X97597628Y-121865155D01*
X97635723Y-121941346D01*
X97673818Y-121979441D01*
X98397628Y-130932775D02*
X98397628Y-130856584D01*
X98359533Y-130780394D01*
X98321437Y-130742298D01*
X98245247Y-130704203D01*
X98092866Y-130666108D01*
X97902390Y-130666108D01*
X97750009Y-130704203D01*
X97673818Y-130742298D01*
X97635723Y-130780394D01*
X97597628Y-130856584D01*
X97597628Y-130932775D01*
X97635723Y-131008965D01*
X97673818Y-131047060D01*
X97750009Y-131085155D01*
X97902390Y-131123251D01*
X98092866Y-131123251D01*
X98245247Y-131085155D01*
X98321437Y-131047060D01*
X98359533Y-131008965D01*
X98397628Y-130932775D01*
X97597628Y-129904203D02*
X97597628Y-130361346D01*
X97597628Y-130132775D02*
X98397628Y-130132775D01*
X98283342Y-130208965D01*
X98207152Y-130285155D01*
X98169056Y-130361346D01*
X98397628Y-129637536D02*
X98397628Y-129142298D01*
X98092866Y-129408965D01*
X98092866Y-129294679D01*
X98054771Y-129218489D01*
X98016675Y-129180394D01*
X97940485Y-129142298D01*
X97750009Y-129142298D01*
X97673818Y-129180394D01*
X97635723Y-129218489D01*
X97597628Y-129294679D01*
X97597628Y-129523251D01*
X97635723Y-129599441D01*
X97673818Y-129637536D01*
X98397628Y-136012775D02*
X98397628Y-135936584D01*
X98359533Y-135860394D01*
X98321437Y-135822298D01*
X98245247Y-135784203D01*
X98092866Y-135746108D01*
X97902390Y-135746108D01*
X97750009Y-135784203D01*
X97673818Y-135822298D01*
X97635723Y-135860394D01*
X97597628Y-135936584D01*
X97597628Y-136012775D01*
X97635723Y-136088965D01*
X97673818Y-136127060D01*
X97750009Y-136165155D01*
X97902390Y-136203251D01*
X98092866Y-136203251D01*
X98245247Y-136165155D01*
X98321437Y-136127060D01*
X98359533Y-136088965D01*
X98397628Y-136012775D01*
X98397628Y-135250870D02*
X98397628Y-135174679D01*
X98359533Y-135098489D01*
X98321437Y-135060394D01*
X98245247Y-135022298D01*
X98092866Y-134984203D01*
X97902390Y-134984203D01*
X97750009Y-135022298D01*
X97673818Y-135060394D01*
X97635723Y-135098489D01*
X97597628Y-135174679D01*
X97597628Y-135250870D01*
X97635723Y-135327060D01*
X97673818Y-135365155D01*
X97750009Y-135403251D01*
X97902390Y-135441346D01*
X98092866Y-135441346D01*
X98245247Y-135403251D01*
X98321437Y-135365155D01*
X98359533Y-135327060D01*
X98397628Y-135250870D01*
X97597628Y-134603251D02*
X97597628Y-134450870D01*
X97635723Y-134374679D01*
X97673818Y-134336584D01*
X97788104Y-134260394D01*
X97940485Y-134222298D01*
X98245247Y-134222298D01*
X98321437Y-134260394D01*
X98359533Y-134298489D01*
X98397628Y-134374679D01*
X98397628Y-134527060D01*
X98359533Y-134603251D01*
X98321437Y-134641346D01*
X98245247Y-134679441D01*
X98054771Y-134679441D01*
X97978580Y-134641346D01*
X97940485Y-134603251D01*
X97902390Y-134527060D01*
X97902390Y-134374679D01*
X97940485Y-134298489D01*
X97978580Y-134260394D01*
X98054771Y-134222298D01*
X98397628Y-133472775D02*
X98397628Y-133396584D01*
X98359533Y-133320394D01*
X98321437Y-133282298D01*
X98245247Y-133244203D01*
X98092866Y-133206108D01*
X97902390Y-133206108D01*
X97750009Y-133244203D01*
X97673818Y-133282298D01*
X97635723Y-133320394D01*
X97597628Y-133396584D01*
X97597628Y-133472775D01*
X97635723Y-133548965D01*
X97673818Y-133587060D01*
X97750009Y-133625155D01*
X97902390Y-133663251D01*
X98092866Y-133663251D01*
X98245247Y-133625155D01*
X98321437Y-133587060D01*
X98359533Y-133548965D01*
X98397628Y-133472775D01*
X98321437Y-132901346D02*
X98359533Y-132863251D01*
X98397628Y-132787060D01*
X98397628Y-132596584D01*
X98359533Y-132520394D01*
X98321437Y-132482298D01*
X98245247Y-132444203D01*
X98169056Y-132444203D01*
X98054771Y-132482298D01*
X97597628Y-132939441D01*
X97597628Y-132444203D01*
X98130961Y-131758489D02*
X97597628Y-131758489D01*
X98435723Y-131948965D02*
X97864294Y-132139441D01*
X97864294Y-131644203D01*
X97597628Y-140826108D02*
X97597628Y-141283251D01*
X97597628Y-141054679D02*
X98397628Y-141054679D01*
X98283342Y-141130870D01*
X98207152Y-141207060D01*
X98169056Y-141283251D01*
X98397628Y-140330870D02*
X98397628Y-140254679D01*
X98359533Y-140178489D01*
X98321437Y-140140394D01*
X98245247Y-140102298D01*
X98092866Y-140064203D01*
X97902390Y-140064203D01*
X97750009Y-140102298D01*
X97673818Y-140140394D01*
X97635723Y-140178489D01*
X97597628Y-140254679D01*
X97597628Y-140330870D01*
X97635723Y-140407060D01*
X97673818Y-140445155D01*
X97750009Y-140483251D01*
X97902390Y-140521346D01*
X98092866Y-140521346D01*
X98245247Y-140483251D01*
X98321437Y-140445155D01*
X98359533Y-140407060D01*
X98397628Y-140330870D01*
X98397628Y-139378489D02*
X98397628Y-139530870D01*
X98359533Y-139607060D01*
X98321437Y-139645155D01*
X98207152Y-139721346D01*
X98054771Y-139759441D01*
X97750009Y-139759441D01*
X97673818Y-139721346D01*
X97635723Y-139683251D01*
X97597628Y-139607060D01*
X97597628Y-139454679D01*
X97635723Y-139378489D01*
X97673818Y-139340394D01*
X97750009Y-139302298D01*
X97940485Y-139302298D01*
X98016675Y-139340394D01*
X98054771Y-139378489D01*
X98092866Y-139454679D01*
X98092866Y-139607060D01*
X98054771Y-139683251D01*
X98016675Y-139721346D01*
X97940485Y-139759441D01*
X109205437Y-134412775D02*
X109205437Y-134488965D01*
X109243533Y-134565155D01*
X109281628Y-134603251D01*
X109357818Y-134641346D01*
X109510199Y-134679441D01*
X109700675Y-134679441D01*
X109853056Y-134641346D01*
X109929247Y-134603251D01*
X109967342Y-134565155D01*
X110005437Y-134488965D01*
X110005437Y-134412775D01*
X109967342Y-134336584D01*
X109929247Y-134298489D01*
X109853056Y-134260394D01*
X109700675Y-134222298D01*
X109510199Y-134222298D01*
X109357818Y-134260394D01*
X109281628Y-134298489D01*
X109243533Y-134336584D01*
X109205437Y-134412775D01*
X109205437Y-135174679D02*
X109205437Y-135250870D01*
X109243533Y-135327060D01*
X109281628Y-135365155D01*
X109357818Y-135403251D01*
X109510199Y-135441346D01*
X109700675Y-135441346D01*
X109853056Y-135403251D01*
X109929247Y-135365155D01*
X109967342Y-135327060D01*
X110005437Y-135250870D01*
X110005437Y-135174679D01*
X109967342Y-135098489D01*
X109929247Y-135060394D01*
X109853056Y-135022298D01*
X109700675Y-134984203D01*
X109510199Y-134984203D01*
X109357818Y-135022298D01*
X109281628Y-135060394D01*
X109243533Y-135098489D01*
X109205437Y-135174679D01*
X109205437Y-135708013D02*
X109205437Y-136203251D01*
X109510199Y-135936584D01*
X109510199Y-136050870D01*
X109548294Y-136127060D01*
X109586390Y-136165155D01*
X109662580Y-136203251D01*
X109853056Y-136203251D01*
X109929247Y-136165155D01*
X109967342Y-136127060D01*
X110005437Y-136050870D01*
X110005437Y-135822298D01*
X109967342Y-135746108D01*
X109929247Y-135708013D01*
X109205437Y-136952775D02*
X109205437Y-137028965D01*
X109243533Y-137105155D01*
X109281628Y-137143251D01*
X109357818Y-137181346D01*
X109510199Y-137219441D01*
X109700675Y-137219441D01*
X109853056Y-137181346D01*
X109929247Y-137143251D01*
X109967342Y-137105155D01*
X110005437Y-137028965D01*
X110005437Y-136952775D01*
X109967342Y-136876584D01*
X109929247Y-136838489D01*
X109853056Y-136800394D01*
X109700675Y-136762298D01*
X109510199Y-136762298D01*
X109357818Y-136800394D01*
X109281628Y-136838489D01*
X109243533Y-136876584D01*
X109205437Y-136952775D01*
X109281628Y-137524203D02*
X109243533Y-137562298D01*
X109205437Y-137638489D01*
X109205437Y-137828965D01*
X109243533Y-137905155D01*
X109281628Y-137943251D01*
X109357818Y-137981346D01*
X109434009Y-137981346D01*
X109548294Y-137943251D01*
X110005437Y-137486108D01*
X110005437Y-137981346D01*
X109548294Y-138438489D02*
X109510199Y-138362298D01*
X109472104Y-138324203D01*
X109395913Y-138286108D01*
X109357818Y-138286108D01*
X109281628Y-138324203D01*
X109243533Y-138362298D01*
X109205437Y-138438489D01*
X109205437Y-138590870D01*
X109243533Y-138667060D01*
X109281628Y-138705155D01*
X109357818Y-138743251D01*
X109395913Y-138743251D01*
X109472104Y-138705155D01*
X109510199Y-138667060D01*
X109548294Y-138590870D01*
X109548294Y-138438489D01*
X109586390Y-138362298D01*
X109624485Y-138324203D01*
X109700675Y-138286108D01*
X109853056Y-138286108D01*
X109929247Y-138324203D01*
X109967342Y-138362298D01*
X110005437Y-138438489D01*
X110005437Y-138590870D01*
X109967342Y-138667060D01*
X109929247Y-138705155D01*
X109853056Y-138743251D01*
X109700675Y-138743251D01*
X109624485Y-138705155D01*
X109586390Y-138667060D01*
X109548294Y-138590870D01*
X109205437Y-121712775D02*
X109205437Y-121788965D01*
X109243533Y-121865155D01*
X109281628Y-121903251D01*
X109357818Y-121941346D01*
X109510199Y-121979441D01*
X109700675Y-121979441D01*
X109853056Y-121941346D01*
X109929247Y-121903251D01*
X109967342Y-121865155D01*
X110005437Y-121788965D01*
X110005437Y-121712775D01*
X109967342Y-121636584D01*
X109929247Y-121598489D01*
X109853056Y-121560394D01*
X109700675Y-121522298D01*
X109510199Y-121522298D01*
X109357818Y-121560394D01*
X109281628Y-121598489D01*
X109243533Y-121636584D01*
X109205437Y-121712775D01*
X109205437Y-122246108D02*
X109205437Y-122741346D01*
X109510199Y-122474679D01*
X109510199Y-122588965D01*
X109548294Y-122665155D01*
X109586390Y-122703251D01*
X109662580Y-122741346D01*
X109853056Y-122741346D01*
X109929247Y-122703251D01*
X109967342Y-122665155D01*
X110005437Y-122588965D01*
X110005437Y-122360394D01*
X109967342Y-122284203D01*
X109929247Y-122246108D01*
X109205437Y-123236584D02*
X109205437Y-123312775D01*
X109243533Y-123388965D01*
X109281628Y-123427060D01*
X109357818Y-123465155D01*
X109510199Y-123503251D01*
X109700675Y-123503251D01*
X109853056Y-123465155D01*
X109929247Y-123427060D01*
X109967342Y-123388965D01*
X110005437Y-123312775D01*
X110005437Y-123236584D01*
X109967342Y-123160394D01*
X109929247Y-123122298D01*
X109853056Y-123084203D01*
X109700675Y-123046108D01*
X109510199Y-123046108D01*
X109357818Y-123084203D01*
X109281628Y-123122298D01*
X109243533Y-123160394D01*
X109205437Y-123236584D01*
X110005437Y-132139441D02*
X110005437Y-131682298D01*
X110005437Y-131910870D02*
X109205437Y-131910870D01*
X109319723Y-131834679D01*
X109395913Y-131758489D01*
X109434009Y-131682298D01*
X110005437Y-132901346D02*
X110005437Y-132444203D01*
X110005437Y-132672775D02*
X109205437Y-132672775D01*
X109319723Y-132596584D01*
X109395913Y-132520394D01*
X109434009Y-132444203D01*
X109205437Y-133168013D02*
X109205437Y-133663251D01*
X109510199Y-133396584D01*
X109510199Y-133510870D01*
X109548294Y-133587060D01*
X109586390Y-133625155D01*
X109662580Y-133663251D01*
X109853056Y-133663251D01*
X109929247Y-133625155D01*
X109967342Y-133587060D01*
X110005437Y-133510870D01*
X110005437Y-133282298D01*
X109967342Y-133206108D01*
X109929247Y-133168013D01*
X110005437Y-139759441D02*
X110005437Y-139302298D01*
X110005437Y-139530870D02*
X109205437Y-139530870D01*
X109319723Y-139454679D01*
X109395913Y-139378489D01*
X109434009Y-139302298D01*
X110005437Y-140521346D02*
X110005437Y-140064203D01*
X110005437Y-140292775D02*
X109205437Y-140292775D01*
X109319723Y-140216584D01*
X109395913Y-140140394D01*
X109434009Y-140064203D01*
X110005437Y-141283251D02*
X110005437Y-140826108D01*
X110005437Y-141054679D02*
X109205437Y-141054679D01*
X109319723Y-140978489D01*
X109395913Y-140902298D01*
X109434009Y-140826108D01*
X109205437Y-129332775D02*
X109205437Y-129408965D01*
X109243533Y-129485155D01*
X109281628Y-129523251D01*
X109357818Y-129561346D01*
X109510199Y-129599441D01*
X109700675Y-129599441D01*
X109853056Y-129561346D01*
X109929247Y-129523251D01*
X109967342Y-129485155D01*
X110005437Y-129408965D01*
X110005437Y-129332775D01*
X109967342Y-129256584D01*
X109929247Y-129218489D01*
X109853056Y-129180394D01*
X109700675Y-129142298D01*
X109510199Y-129142298D01*
X109357818Y-129180394D01*
X109281628Y-129218489D01*
X109243533Y-129256584D01*
X109205437Y-129332775D01*
X109205437Y-130094679D02*
X109205437Y-130170870D01*
X109243533Y-130247060D01*
X109281628Y-130285155D01*
X109357818Y-130323251D01*
X109510199Y-130361346D01*
X109700675Y-130361346D01*
X109853056Y-130323251D01*
X109929247Y-130285155D01*
X109967342Y-130247060D01*
X110005437Y-130170870D01*
X110005437Y-130094679D01*
X109967342Y-130018489D01*
X109929247Y-129980394D01*
X109853056Y-129942298D01*
X109700675Y-129904203D01*
X109510199Y-129904203D01*
X109357818Y-129942298D01*
X109281628Y-129980394D01*
X109243533Y-130018489D01*
X109205437Y-130094679D01*
X109281628Y-130666108D02*
X109243533Y-130704203D01*
X109205437Y-130780394D01*
X109205437Y-130970870D01*
X109243533Y-131047060D01*
X109281628Y-131085155D01*
X109357818Y-131123251D01*
X109434009Y-131123251D01*
X109548294Y-131085155D01*
X110005437Y-130628013D01*
X110005437Y-131123251D01*
X109205437Y-124252775D02*
X109205437Y-124328965D01*
X109243533Y-124405155D01*
X109281628Y-124443251D01*
X109357818Y-124481346D01*
X109510199Y-124519441D01*
X109700675Y-124519441D01*
X109853056Y-124481346D01*
X109929247Y-124443251D01*
X109967342Y-124405155D01*
X110005437Y-124328965D01*
X110005437Y-124252775D01*
X109967342Y-124176584D01*
X109929247Y-124138489D01*
X109853056Y-124100394D01*
X109700675Y-124062298D01*
X109510199Y-124062298D01*
X109357818Y-124100394D01*
X109281628Y-124138489D01*
X109243533Y-124176584D01*
X109205437Y-124252775D01*
X109205437Y-124786108D02*
X109205437Y-125281346D01*
X109510199Y-125014679D01*
X109510199Y-125128965D01*
X109548294Y-125205155D01*
X109586390Y-125243251D01*
X109662580Y-125281346D01*
X109853056Y-125281346D01*
X109929247Y-125243251D01*
X109967342Y-125205155D01*
X110005437Y-125128965D01*
X110005437Y-124900394D01*
X109967342Y-124824203D01*
X109929247Y-124786108D01*
X110005437Y-126043251D02*
X110005437Y-125586108D01*
X110005437Y-125814679D02*
X109205437Y-125814679D01*
X109319723Y-125738489D01*
X109395913Y-125662298D01*
X109434009Y-125586108D01*
X109205437Y-126792775D02*
X109205437Y-126868965D01*
X109243533Y-126945155D01*
X109281628Y-126983251D01*
X109357818Y-127021346D01*
X109510199Y-127059441D01*
X109700675Y-127059441D01*
X109853056Y-127021346D01*
X109929247Y-126983251D01*
X109967342Y-126945155D01*
X110005437Y-126868965D01*
X110005437Y-126792775D01*
X109967342Y-126716584D01*
X109929247Y-126678489D01*
X109853056Y-126640394D01*
X109700675Y-126602298D01*
X109510199Y-126602298D01*
X109357818Y-126640394D01*
X109281628Y-126678489D01*
X109243533Y-126716584D01*
X109205437Y-126792775D01*
X109281628Y-127364203D02*
X109243533Y-127402298D01*
X109205437Y-127478489D01*
X109205437Y-127668965D01*
X109243533Y-127745155D01*
X109281628Y-127783251D01*
X109357818Y-127821346D01*
X109434009Y-127821346D01*
X109548294Y-127783251D01*
X110005437Y-127326108D01*
X110005437Y-127821346D01*
X110005437Y-128202298D02*
X110005437Y-128354679D01*
X109967342Y-128430870D01*
X109929247Y-128468965D01*
X109814961Y-128545155D01*
X109662580Y-128583251D01*
X109357818Y-128583251D01*
X109281628Y-128545155D01*
X109243533Y-128507060D01*
X109205437Y-128430870D01*
X109205437Y-128278489D01*
X109243533Y-128202298D01*
X109281628Y-128164203D01*
X109357818Y-128126108D01*
X109548294Y-128126108D01*
X109624485Y-128164203D01*
X109662580Y-128202298D01*
X109700675Y-128278489D01*
X109700675Y-128430870D01*
X109662580Y-128507060D01*
X109624485Y-128545155D01*
X109548294Y-128583251D01*
M02*
