G04 #@! TF.GenerationSoftware,KiCad,Pcbnew,5.1.4+dfsg1-1*
G04 #@! TF.CreationDate,2020-04-01T11:30:31+02:00*
G04 #@! TF.ProjectId,nrfmicro,6e72666d-6963-4726-9f2e-6b696361645f,rev?*
G04 #@! TF.SameCoordinates,Original*
G04 #@! TF.FileFunction,Copper,L2,Bot*
G04 #@! TF.FilePolarity,Positive*
%FSLAX46Y46*%
G04 Gerber Fmt 4.6, Leading zero omitted, Abs format (unit mm)*
G04 Created by KiCad (PCBNEW 5.1.4+dfsg1-1) date 2020-04-01 11:30:31*
%MOMM*%
%LPD*%
G04 APERTURE LIST*
%ADD10C,0.100000*%
%ADD11C,1.500000*%
%ADD12C,0.800000*%
%ADD13R,1.000000X3.500000*%
%ADD14R,1.500000X3.400000*%
%ADD15C,1.270000*%
%ADD16R,1.000000X0.600000*%
%ADD17R,1.100000X0.600000*%
%ADD18R,0.600000X1.000000*%
%ADD19R,1.250000X1.250000*%
%ADD20R,1.000000X0.650000*%
%ADD21R,0.650000X1.000000*%
%ADD22C,0.600000*%
%ADD23C,0.200000*%
G04 APERTURE END LIST*
D10*
G36*
X104213289Y-130654581D02*
G01*
X104249692Y-130659981D01*
X104285390Y-130668922D01*
X104320039Y-130681320D01*
X104353307Y-130697055D01*
X104384872Y-130715974D01*
X104414430Y-130737896D01*
X104441698Y-130762610D01*
X104466412Y-130789878D01*
X104488334Y-130819436D01*
X104507253Y-130851001D01*
X104522988Y-130884269D01*
X104535386Y-130918918D01*
X104544327Y-130954616D01*
X104549727Y-130991019D01*
X104551533Y-131027775D01*
X104551533Y-131777775D01*
X104549727Y-131814531D01*
X104544327Y-131850934D01*
X104535386Y-131886632D01*
X104522988Y-131921281D01*
X104507253Y-131954549D01*
X104488334Y-131986114D01*
X104466412Y-132015672D01*
X104441698Y-132042940D01*
X104414430Y-132067654D01*
X104384872Y-132089576D01*
X104353307Y-132108495D01*
X104320039Y-132124230D01*
X104285390Y-132136628D01*
X104249692Y-132145569D01*
X104213289Y-132150969D01*
X104176533Y-132152775D01*
X103426533Y-132152775D01*
X103389777Y-132150969D01*
X103353374Y-132145569D01*
X103317676Y-132136628D01*
X103283027Y-132124230D01*
X103249759Y-132108495D01*
X103218194Y-132089576D01*
X103188636Y-132067654D01*
X103161368Y-132042940D01*
X103136654Y-132015672D01*
X103114732Y-131986114D01*
X103095813Y-131954549D01*
X103080078Y-131921281D01*
X103067680Y-131886632D01*
X103058739Y-131850934D01*
X103053339Y-131814531D01*
X103051533Y-131777775D01*
X103051533Y-131027775D01*
X103053339Y-130991019D01*
X103058739Y-130954616D01*
X103067680Y-130918918D01*
X103080078Y-130884269D01*
X103095813Y-130851001D01*
X103114732Y-130819436D01*
X103136654Y-130789878D01*
X103161368Y-130762610D01*
X103188636Y-130737896D01*
X103218194Y-130715974D01*
X103249759Y-130697055D01*
X103283027Y-130681320D01*
X103317676Y-130668922D01*
X103353374Y-130659981D01*
X103389777Y-130654581D01*
X103426533Y-130652775D01*
X104176533Y-130652775D01*
X104213289Y-130654581D01*
X104213289Y-130654581D01*
G37*
D11*
X103801533Y-131402775D03*
D10*
G36*
X104213289Y-128114581D02*
G01*
X104249692Y-128119981D01*
X104285390Y-128128922D01*
X104320039Y-128141320D01*
X104353307Y-128157055D01*
X104384872Y-128175974D01*
X104414430Y-128197896D01*
X104441698Y-128222610D01*
X104466412Y-128249878D01*
X104488334Y-128279436D01*
X104507253Y-128311001D01*
X104522988Y-128344269D01*
X104535386Y-128378918D01*
X104544327Y-128414616D01*
X104549727Y-128451019D01*
X104551533Y-128487775D01*
X104551533Y-129237775D01*
X104549727Y-129274531D01*
X104544327Y-129310934D01*
X104535386Y-129346632D01*
X104522988Y-129381281D01*
X104507253Y-129414549D01*
X104488334Y-129446114D01*
X104466412Y-129475672D01*
X104441698Y-129502940D01*
X104414430Y-129527654D01*
X104384872Y-129549576D01*
X104353307Y-129568495D01*
X104320039Y-129584230D01*
X104285390Y-129596628D01*
X104249692Y-129605569D01*
X104213289Y-129610969D01*
X104176533Y-129612775D01*
X103426533Y-129612775D01*
X103389777Y-129610969D01*
X103353374Y-129605569D01*
X103317676Y-129596628D01*
X103283027Y-129584230D01*
X103249759Y-129568495D01*
X103218194Y-129549576D01*
X103188636Y-129527654D01*
X103161368Y-129502940D01*
X103136654Y-129475672D01*
X103114732Y-129446114D01*
X103095813Y-129414549D01*
X103080078Y-129381281D01*
X103067680Y-129346632D01*
X103058739Y-129310934D01*
X103053339Y-129274531D01*
X103051533Y-129237775D01*
X103051533Y-128487775D01*
X103053339Y-128451019D01*
X103058739Y-128414616D01*
X103067680Y-128378918D01*
X103080078Y-128344269D01*
X103095813Y-128311001D01*
X103114732Y-128279436D01*
X103136654Y-128249878D01*
X103161368Y-128222610D01*
X103188636Y-128197896D01*
X103218194Y-128175974D01*
X103249759Y-128157055D01*
X103283027Y-128141320D01*
X103317676Y-128128922D01*
X103353374Y-128119981D01*
X103389777Y-128114581D01*
X103426533Y-128112775D01*
X104176533Y-128112775D01*
X104213289Y-128114581D01*
X104213289Y-128114581D01*
G37*
D11*
X103801533Y-128862775D03*
D12*
X107665000Y-110203000D03*
X107665000Y-110467000D03*
X107677000Y-109949000D03*
X99918000Y-110467000D03*
X99927000Y-110203000D03*
X99918000Y-109959000D03*
X107538000Y-113896000D03*
X107538000Y-114150000D03*
X107538000Y-113642000D03*
X100045000Y-114150000D03*
X100045000Y-113642000D03*
X100045000Y-113896000D03*
D13*
X104818000Y-116798000D03*
D14*
X107168000Y-122548000D03*
D13*
X102818000Y-116798000D03*
D14*
X100468000Y-122548000D03*
D10*
G36*
X104213289Y-135734581D02*
G01*
X104249692Y-135739981D01*
X104285390Y-135748922D01*
X104320039Y-135761320D01*
X104353307Y-135777055D01*
X104384872Y-135795974D01*
X104414430Y-135817896D01*
X104441698Y-135842610D01*
X104466412Y-135869878D01*
X104488334Y-135899436D01*
X104507253Y-135931001D01*
X104522988Y-135964269D01*
X104535386Y-135998918D01*
X104544327Y-136034616D01*
X104549727Y-136071019D01*
X104551533Y-136107775D01*
X104551533Y-136857775D01*
X104549727Y-136894531D01*
X104544327Y-136930934D01*
X104535386Y-136966632D01*
X104522988Y-137001281D01*
X104507253Y-137034549D01*
X104488334Y-137066114D01*
X104466412Y-137095672D01*
X104441698Y-137122940D01*
X104414430Y-137147654D01*
X104384872Y-137169576D01*
X104353307Y-137188495D01*
X104320039Y-137204230D01*
X104285390Y-137216628D01*
X104249692Y-137225569D01*
X104213289Y-137230969D01*
X104176533Y-137232775D01*
X103426533Y-137232775D01*
X103389777Y-137230969D01*
X103353374Y-137225569D01*
X103317676Y-137216628D01*
X103283027Y-137204230D01*
X103249759Y-137188495D01*
X103218194Y-137169576D01*
X103188636Y-137147654D01*
X103161368Y-137122940D01*
X103136654Y-137095672D01*
X103114732Y-137066114D01*
X103095813Y-137034549D01*
X103080078Y-137001281D01*
X103067680Y-136966632D01*
X103058739Y-136930934D01*
X103053339Y-136894531D01*
X103051533Y-136857775D01*
X103051533Y-136107775D01*
X103053339Y-136071019D01*
X103058739Y-136034616D01*
X103067680Y-135998918D01*
X103080078Y-135964269D01*
X103095813Y-135931001D01*
X103114732Y-135899436D01*
X103136654Y-135869878D01*
X103161368Y-135842610D01*
X103188636Y-135817896D01*
X103218194Y-135795974D01*
X103249759Y-135777055D01*
X103283027Y-135761320D01*
X103317676Y-135748922D01*
X103353374Y-135739981D01*
X103389777Y-135734581D01*
X103426533Y-135732775D01*
X104176533Y-135732775D01*
X104213289Y-135734581D01*
X104213289Y-135734581D01*
G37*
D11*
X103801533Y-136482775D03*
D10*
G36*
X104213289Y-133194581D02*
G01*
X104249692Y-133199981D01*
X104285390Y-133208922D01*
X104320039Y-133221320D01*
X104353307Y-133237055D01*
X104384872Y-133255974D01*
X104414430Y-133277896D01*
X104441698Y-133302610D01*
X104466412Y-133329878D01*
X104488334Y-133359436D01*
X104507253Y-133391001D01*
X104522988Y-133424269D01*
X104535386Y-133458918D01*
X104544327Y-133494616D01*
X104549727Y-133531019D01*
X104551533Y-133567775D01*
X104551533Y-134317775D01*
X104549727Y-134354531D01*
X104544327Y-134390934D01*
X104535386Y-134426632D01*
X104522988Y-134461281D01*
X104507253Y-134494549D01*
X104488334Y-134526114D01*
X104466412Y-134555672D01*
X104441698Y-134582940D01*
X104414430Y-134607654D01*
X104384872Y-134629576D01*
X104353307Y-134648495D01*
X104320039Y-134664230D01*
X104285390Y-134676628D01*
X104249692Y-134685569D01*
X104213289Y-134690969D01*
X104176533Y-134692775D01*
X103426533Y-134692775D01*
X103389777Y-134690969D01*
X103353374Y-134685569D01*
X103317676Y-134676628D01*
X103283027Y-134664230D01*
X103249759Y-134648495D01*
X103218194Y-134629576D01*
X103188636Y-134607654D01*
X103161368Y-134582940D01*
X103136654Y-134555672D01*
X103114732Y-134526114D01*
X103095813Y-134494549D01*
X103080078Y-134461281D01*
X103067680Y-134426632D01*
X103058739Y-134390934D01*
X103053339Y-134354531D01*
X103051533Y-134317775D01*
X103051533Y-133567775D01*
X103053339Y-133531019D01*
X103058739Y-133494616D01*
X103067680Y-133458918D01*
X103080078Y-133424269D01*
X103095813Y-133391001D01*
X103114732Y-133359436D01*
X103136654Y-133329878D01*
X103161368Y-133302610D01*
X103188636Y-133277896D01*
X103218194Y-133255974D01*
X103249759Y-133237055D01*
X103283027Y-133221320D01*
X103317676Y-133208922D01*
X103353374Y-133199981D01*
X103389777Y-133194581D01*
X103426533Y-133192775D01*
X104176533Y-133192775D01*
X104213289Y-133194581D01*
X104213289Y-133194581D01*
G37*
D11*
X103801533Y-133942775D03*
D15*
X111422000Y-109813000D03*
X96182000Y-109813000D03*
D16*
X107402000Y-111290000D03*
D17*
X107402000Y-109004000D03*
X100202000Y-111290000D03*
D18*
X104502000Y-111997000D03*
X106002000Y-111997000D03*
X101602000Y-111997000D03*
D16*
X100202000Y-109004000D03*
D19*
X111422000Y-112353000D03*
D15*
X111422000Y-114893000D03*
X111422000Y-117433000D03*
X111422000Y-119973000D03*
X111422000Y-122513000D03*
X111422000Y-125053000D03*
X111422000Y-127593000D03*
X111422000Y-130133000D03*
X111422000Y-132673000D03*
X111422000Y-135213000D03*
X111422000Y-137753000D03*
X111422000Y-140293000D03*
X96182000Y-140293000D03*
X96182000Y-137753000D03*
X96182000Y-135213000D03*
X96182000Y-132673000D03*
X96182000Y-130133000D03*
X96182000Y-127593000D03*
X96182000Y-125053000D03*
X96182000Y-122513000D03*
X96182000Y-119973000D03*
X96182000Y-117433000D03*
X96182000Y-114893000D03*
X96182000Y-112353000D03*
D20*
X99761000Y-128415000D03*
X99761000Y-129685000D03*
X99761000Y-130955000D03*
X99761000Y-132225000D03*
X99761000Y-133495000D03*
X99761000Y-134765000D03*
X99761000Y-136035000D03*
X99761000Y-137305000D03*
D21*
X106365000Y-125875000D03*
X107635000Y-125875000D03*
X102555000Y-125875000D03*
X105095000Y-125875000D03*
X101285000Y-125875000D03*
X100015000Y-125875000D03*
X103825000Y-125875000D03*
D22*
X106598000Y-118449200D03*
X101005300Y-118446500D03*
X98783900Y-126371500D03*
X104766100Y-121655000D03*
X105102800Y-123083500D03*
X103802000Y-119522300D03*
X109666200Y-118428300D03*
X98689600Y-134753800D03*
X100708400Y-134120400D03*
X102771900Y-121668900D03*
D23*
X111422000Y-114893000D02*
X110154200Y-114893000D01*
X110154200Y-114893000D02*
X106598000Y-118449200D01*
X106598000Y-118449200D02*
X106198900Y-118848300D01*
X106198900Y-118848300D02*
X102818000Y-118848300D01*
X102818000Y-116798000D02*
X102818000Y-118848300D01*
X111422000Y-119973000D02*
X111261900Y-120133100D01*
X111261900Y-120133100D02*
X102691900Y-120133100D01*
X102691900Y-120133100D02*
X101005300Y-118446500D01*
X111422000Y-117433000D02*
X112388500Y-118399500D01*
X112388500Y-118399500D02*
X112388500Y-120402700D01*
X112388500Y-120402700D02*
X111548200Y-121243000D01*
X111548200Y-121243000D02*
X111278300Y-121243000D01*
X111278300Y-121243000D02*
X109902400Y-122618900D01*
X109902400Y-122618900D02*
X109902400Y-124865700D01*
X109902400Y-124865700D02*
X108058100Y-126710000D01*
X108058100Y-126710000D02*
X99122400Y-126710000D01*
X99122400Y-126710000D02*
X98783900Y-126371500D01*
X104766100Y-121655000D02*
X105102800Y-121991700D01*
X105102800Y-121991700D02*
X105102800Y-123083500D01*
X104818000Y-112797300D02*
X104502000Y-112481300D01*
X104502000Y-112481300D02*
X104502000Y-112463100D01*
X110496700Y-112353000D02*
X110052400Y-112797300D01*
X110052400Y-112797300D02*
X104818000Y-112797300D01*
X104818000Y-112797300D02*
X104818000Y-114747700D01*
X104818000Y-116798000D02*
X104818000Y-114747700D01*
X104502000Y-111997000D02*
X104502000Y-112463100D01*
X111422000Y-112353000D02*
X110496700Y-112353000D01*
X99761000Y-130955000D02*
X98960700Y-130955000D01*
X98960700Y-130955000D02*
X98960700Y-130371700D01*
X98960700Y-130371700D02*
X96182000Y-127593000D01*
X99761000Y-128415000D02*
X97428400Y-126082400D01*
X97428400Y-126082400D02*
X97428400Y-123759400D01*
X97428400Y-123759400D02*
X96182000Y-122513000D01*
X96182000Y-125053000D02*
X96182000Y-125619100D01*
X96182000Y-125619100D02*
X98960700Y-128397800D01*
X98960700Y-128397800D02*
X98960700Y-129685000D01*
X99761000Y-129685000D02*
X98960700Y-129685000D01*
X96182000Y-114893000D02*
X96182000Y-115638600D01*
X96182000Y-115638600D02*
X100906900Y-120363500D01*
X100906900Y-120363500D02*
X101159400Y-120363500D01*
X101159400Y-120363500D02*
X101694400Y-120898500D01*
X101694400Y-120898500D02*
X101694400Y-122083300D01*
X101694400Y-122083300D02*
X104685800Y-125074700D01*
X104685800Y-125074700D02*
X105095000Y-125074700D01*
X105095000Y-125875000D02*
X105095000Y-125074700D01*
X96182000Y-112353000D02*
X99971700Y-116142700D01*
X99971700Y-116142700D02*
X99971700Y-118862200D01*
X99971700Y-118862200D02*
X101072700Y-119963200D01*
X101072700Y-119963200D02*
X101325300Y-119963200D01*
X101325300Y-119963200D02*
X102094700Y-120732600D01*
X102094700Y-120732600D02*
X102094700Y-121917500D01*
X102094700Y-121917500D02*
X102501300Y-122324100D01*
X102501300Y-122324100D02*
X102929800Y-122324100D01*
X102929800Y-122324100D02*
X105680400Y-125074700D01*
X105680400Y-125074700D02*
X106365000Y-125074700D01*
X106365000Y-125875000D02*
X106365000Y-125074700D01*
X103802000Y-119522300D02*
X108572200Y-119522300D01*
X108572200Y-119522300D02*
X109666200Y-118428300D01*
X99761000Y-137305000D02*
X98715100Y-137305000D01*
X98715100Y-137305000D02*
X96182000Y-139838100D01*
X96182000Y-139838100D02*
X96182000Y-140293000D01*
X102728358Y-132869600D02*
X103801533Y-133942775D01*
X99093300Y-132869600D02*
X102728358Y-132869600D01*
X98689600Y-134753800D02*
X98689600Y-133273300D01*
X98689600Y-133273300D02*
X99093300Y-132869600D01*
X101439158Y-134120400D02*
X103801533Y-136482775D01*
X100708400Y-134120400D02*
X101439158Y-134120400D01*
X106002000Y-111196700D02*
X104076700Y-111196700D01*
X104076700Y-111196700D02*
X100372000Y-114901400D01*
X100372000Y-114901400D02*
X100372000Y-118663400D01*
X100372000Y-118663400D02*
X101271500Y-119562900D01*
X101271500Y-119562900D02*
X101511800Y-119562900D01*
X101511800Y-119562900D02*
X102771900Y-120823000D01*
X102771900Y-120823000D02*
X102771900Y-121668900D01*
X106002000Y-111997000D02*
X106002000Y-111196700D01*
M02*
